<?xml version="1.0" encoding="utf-8"?>
<!-- Generator: Adobe Illustrator 17.1.0, SVG Export Plug-In . SVG Version: 6.00 Build 0)  -->
<!DOCTYPE svg PUBLIC "-//W3C//DTD SVG 1.1//EN" "http://www.w3.org/Graphics/SVG/1.1/DTD/svg11.dtd">
<svg version="1.1" id="Layer_1" xmlns="http://www.w3.org/2000/svg" xmlns:xlink="http://www.w3.org/1999/xlink" x="0px" y="0px"
	 width="33px" height="19px" viewBox="0 0 30 16" enable-background="new 0 0 30 16" xml:space="preserve">
<g>
	<path fill="#E3E3E1" d="M28,8c0,0-5.8-5-10.6-6.6C16.7,1.2,15.9,1,15,1c-3.9,0-7,3.1-7,7c0,3.9,3.1,7,7,7c0.9,0,1.7-0.2,2.4-0.4
		C22.2,13,28,8,28,8z"/>
	<path fill="none" stroke="#FFFFFF" stroke-width="2" stroke-miterlimit="10" d="M28,8c0,0-5.8-5-10.6-6.6C16.7,1.2,15.9,1,15,1
		c-3.9,0-7,3.1-7,7c0,3.9,3.1,7,7,7c0.9,0,1.7-0.2,2.4-0.4C22.2,13,28,8,28,8z"/>
	<path fill="#7F7F7C" d="M15,1c0.9,0,1.7,0.2,2.4,0.4C22.2,3,28,8,28,8s-5.8,5-10.6,6.6C16.7,14.8,15.9,15,15,15c-3.9,0-7-3.1-7-7
		C8,4.1,11.1,1,15,1 M15,0c-4.4,0-8,3.6-8,8s3.6,8,8,8c0.9,0,1.9-0.2,2.8-0.5c4.9-1.6,10.6-6.5,10.9-6.7L29.5,8l-0.9-0.8
		c-0.2-0.2-6-5.2-10.9-6.8C16.9,0.2,15.9,0,15,0L15,0z"/>
</g>
<circle fill="#171717" cx="15" cy="8" r="4"/>
<g>
</g>
<g>
</g>
<g>
</g>
<g>
</g>
<g>
</g>
<g>
</g>
<g>
</g>
<g>
</g>
<g>
</g>
<g>
</g>
<g>
</g>
<g>
</g>
<g>
</g>
<g>
</g>
<g>
</g>
</svg>
