<?xml version="1.0" encoding="utf-8"?>
<!-- Generator: Adobe Illustrator 17.1.0, SVG Export Plug-In . SVG Version: 6.00 Build 0)  -->
<!DOCTYPE svg PUBLIC "-//W3C//DTD SVG 1.1//EN" "http://www.w3.org/Graphics/SVG/1.1/DTD/svg11.dtd">
<svg version="1.1" id="Layer_1" xmlns="http://www.w3.org/2000/svg" xmlns:xlink="http://www.w3.org/1999/xlink" x="0px" y="0px"
	 width="33px" height="19px" viewBox="0 0 34 20" enable-background="new 0 0 34 20" xml:space="preserve">
<g>
	<path fill="#E3E3E1" d="M28,10c0,0-5.8-5-10.6-6.6C16.7,3.2,15.9,3,15,3c-3.9,0-7,3.1-7,7c0,3.9,3.1,7,7,7c0.9,0,1.7-0.2,2.4-0.4
		C22.2,15,28,10,28,10z"/>
	<path fill="none" stroke="#FFFFFF" stroke-width="2" stroke-miterlimit="10" d="M28,10c0,0-5.8-5-10.6-6.6C16.7,3.2,15.9,3,15,3
		c-3.9,0-7,3.1-7,7c0,3.9,3.1,7,7,7c0.9,0,1.7-0.2,2.4-0.4C22.2,15,28,10,28,10z"/>
	<path fill="#7F7F7C" d="M15,3c0.9,0,1.7,0.2,2.4,0.4C22.2,5,28,10,28,10s-5.8,5-10.6,6.6C16.7,16.8,15.9,17,15,17c-3.9,0-7-3.1-7-7
		C8,6.1,11.1,3,15,3 M15,0C9.5,0,5,4.5,5,10s4.5,10,10,10c1.2,0,2.3-0.2,3.4-0.6c5.3-1.7,11.3-6.9,11.6-7.1l2.6-2.3L30,7.7
		c-0.3-0.2-6.2-5.4-11.6-7.1C17.3,0.2,16.2,0,15,0L15,0z"/>
	<path fill="#F0AD4E" d="M15,3c0.9,0,1.7,0.2,2.4,0.4C22.2,5,28,10,28,10s-5.8,5-10.6,6.6C16.7,16.8,15.9,17,15,17c-3.9,0-7-3.1-7-7
		C8,6.1,11.1,3,15,3 M15,1c-5,0-9,4-9,9s4,9,9,9c1,0,2.1-0.2,3.1-0.6c5.1-1.6,11-6.7,11.2-6.9L31,10l-1.7-1.5
		c-0.2-0.2-6.1-5.3-11.2-6.9C17.1,1.2,16,1,15,1L15,1z"/>
</g>
<circle fill="#171717" cx="15" cy="10" r="4"/>
<g>
</g>
<g>
</g>
<g>
</g>
<g>
</g>
<g>
</g>
<g>
</g>
<g>
</g>
<g>
</g>
<g>
</g>
<g>
</g>
<g>
</g>
<g>
</g>
<g>
</g>
<g>
</g>
<g>
</g>
</svg>
