<?xml version="1.0" encoding="UTF-8" standalone="no"?>
<!-- Generator: Adobe Illustrator 17.1.0, SVG Export Plug-In . SVG Version: 6.00 Build 0)  -->

<svg
   xmlns:dc="http://purl.org/dc/elements/1.1/"
   xmlns:cc="http://creativecommons.org/ns#"
   xmlns:rdf="http://www.w3.org/1999/02/22-rdf-syntax-ns#"
   xmlns:svg="http://www.w3.org/2000/svg"
   xmlns="http://www.w3.org/2000/svg"
   xmlns:sodipodi="http://sodipodi.sourceforge.net/DTD/sodipodi-0.dtd"
   xmlns:inkscape="http://www.inkscape.org/namespaces/inkscape"
   version="1.1"
   id="Layer_1"
   x="0px"
   y="0px"
   width="33px"
   height="19px"
   viewBox="0 0 34 20"
   enable-background="new 0 0 34 20"
   xml:space="preserve"
   sodipodi:docname="no-direction-warning-sign.svg"
   inkscape:version="0.92.2 (5c3e80d, 2017-08-06)"><metadata
     id="metadata4038"><rdf:RDF><cc:Work
         rdf:about=""><dc:format>image/svg+xml</dc:format><dc:type
           rdf:resource="http://purl.org/dc/dcmitype/StillImage" /><dc:title></dc:title></cc:Work></rdf:RDF></metadata><defs
     id="defs4036" /><sodipodi:namedview
     pagecolor="#ffffff"
     bordercolor="#666666"
     borderopacity="1"
     objecttolerance="10"
     gridtolerance="10"
     guidetolerance="10"
     inkscape:pageopacity="0"
     inkscape:pageshadow="2"
     inkscape:window-width="1920"
     inkscape:window-height="1056"
     id="namedview4034"
     showgrid="false"
     showguides="true"
     inkscape:guide-bbox="true"
     inkscape:zoom="42.947368"
     inkscape:cx="16.5"
     inkscape:cy="9.570636"
     inkscape:window-x="1916"
     inkscape:window-y="-4"
     inkscape:window-maximized="1"
     inkscape:current-layer="Layer_1" /><g
     id="g3999"><path
       d="M 22.277451,9.6254902 C 22.288236,5.7735294 19.184314,3 15,3 11.1,3 8,6.1 8,10 c 0,3.9 3.1,7 7,7 4.830176,0.0085 7.297347,-2.935307 7.277451,-7.3745098 z"
       id="path3991"
       inkscape:connector-curvature="0"
       style="fill:#e3e3e1"
       sodipodi:nodetypes="csscc" /><path
       stroke-miterlimit="10"
       d="M28,10c0,0-5.8-5-10.6-6.6C16.7,3.2,15.9,3,15,3   c-3.9,0-7,3.1-7,7c0,3.9,3.1,7,7,7c0.9,0,1.7-0.2,2.4-0.4C22.2,15,28,10,28,10z"
       id="path3993"
       stroke-width="2"
       stroke="#FFFFFF"
       fill="none" /><path
       d="m 15,3 c 5.549142,0.2105897 9.061877,2.0816468 9.210785,7 C 24.14804,14.072549 19.772549,16.95098 15,17 11.100206,17.040055 8,13.9 8,10 8,6.1 11.1,3 15,3 M 15,0 C 9.5,0 5,4.5 5,10 5,15.5 9.5001895,19.954352 15,20 20.906088,20.04902 25.241177,15.490196 25.262746,10 25.252261,4.460784 20.906088,-0.00282943 15,0 Z"
       id="path3995"
       inkscape:connector-curvature="0"
       style="fill:#7f7f7c"
       sodipodi:nodetypes="ccssccsscc" /><path
       d="m 15,3 c 3.798245,0.122549 6.896078,3.078431 6.983334,7 C 21.931117,13.921569 18.798246,17.063812 15,17 11.1,17 8,13.9 8,10 8,6.1 11.1,3 15,3 m 0,-2 c -5,0 -9,4 -9,9 0,5 4,9 9,9 5.366874,-0.01191 9.272452,-4.02451 9.210785,-9 v 0 C 24.224981,4.97549 20.366874,0.99780799 15,1 Z"
       id="path3997"
       inkscape:connector-curvature="0"
       style="fill:#ff0000"
       sodipodi:nodetypes="cccsccscccc" /></g><circle
     fill="#171717"
     cx="15"
     cy="10"
     r="4"
     id="circle4001" /><g
     id="g4003" /><g
     id="g4005" /><g
     id="g4007" /><g
     id="g4009" /><g
     id="g4011" /><g
     id="g4013" /><g
     id="g4015" /><g
     id="g4017" /><g
     id="g4019" /><g
     id="g4021" /><g
     id="g4023" /><g
     id="g4025" /><g
     id="g4027" /><g
     id="g4029" /><g
     id="g4031" /></svg>