<?xml version="1.0" encoding="utf-8"?>
<!-- Generator: Adobe Illustrator 19.1.0, SVG Export Plug-In . SVG Version: 6.00 Build 0)  -->
<svg version="1.1"
     width="25px"
     height="25px"
	 id="Layer_1" sodipodi:docname="arrow-drop-red.svg" inkscape:version="0.48.3.1 r9886" xmlns:dc="http://purl.org/dc/elements/1.1/" xmlns:rdf="http://www.w3.org/1999/02/22-rdf-syntax-ns#" xmlns:svg="http://www.w3.org/2000/svg" xmlns:sodipodi="http://sodipodi.sourceforge.net/DTD/sodipodi-0.dtd" xmlns:cc="http://creativecommons.org/ns#" xmlns:inkscape="http://www.inkscape.org/namespaces/inkscape"
	 xmlns="http://www.w3.org/2000/svg" xmlns:xlink="http://www.w3.org/1999/xlink" x="0px" y="0px" viewBox="222.5 0 396.9 595.3"
	 style="enable-background:new 222.5 0 396.9 595.3;" xml:space="preserve">
<style type="text/css">
	.st0{fill:#FFFFFF;}
</style>
<sodipodi:namedview  inkscape:current-layer="Layer_1" inkscape:window-maximized="1" inkscape:window-y="0" inkscape:window-x="1920" fit-margin-bottom="0" fit-margin-right="0" inkscape:window-height="1412" inkscape:pageshadow="2" inkscape:pageopacity="0" inkscape:window-width="2560" pagecolor="#ffffff" objecttolerance="10" bordercolor="#666666" inkscape:zoom="0.37083333" inkscape:cx="129.2" fit-margin-left="0" fit-margin-top="0" showgrid="false" borderopacity="1" id="namedview5176" inkscape:cy="193.8" guidetolerance="10" gridtolerance="10">
	</sodipodi:namedview>
<g id="GREY" transform="translate(-350.8,-86.2)">
</g>
<g id="BLUE" transform="translate(-350.8,-86.2)">
</g>
<g id="GREEN" transform="translate(-350.8,-86.2)">
</g>
<g id="g5168" transform="translate(-350.8,-86.2)">
	<path id="path5170" inkscape:connector-curvature="0" d="M970.2,483.1c0-198.4-198.4-396.9-198.4-396.9S573.3,284.6,573.3,483.1
		c0,125.6,105.8,198.4,198.4,198.4S970.2,608.8,970.2,483.1L970.2,483.1z M771.7,631.9c-82.6,0-148.8-66.2-148.8-148.8
		s66.2-148.8,148.8-148.8s148.8,66.2,148.8,148.8S854.4,631.9,771.7,631.9L771.7,631.9z"/>
	<path id="path5172" inkscape:connector-curvature="0" class="st0" d="M929.5,478.9c0-164.3-157.7-328.5-157.7-328.5
		S614,314.6,614,478.9c0,104,84.2,164.2,157.7,164.2S929.5,582.9,929.5,478.9z"/>
	<path id="path5174" inkscape:connector-curvature="0" d="M889.1,484.6c0-62.8-53-115.8-115.8-115.8s-115.8,53-115.8,115.8
		s53,115.8,115.8,115.8S889.1,547.4,889.1,484.6z"/>
</g>
</svg>
