<?xml version="1.0" encoding="utf-8"?>
<!-- Generator: Adobe Illustrator 18.1.1, SVG Export Plug-In . SVG Version: 6.00 Build 0)  -->
<svg version="1.1" id="Layer_1" xmlns="http://www.w3.org/2000/svg" xmlns:xlink="http://www.w3.org/1999/xlink" x="0px" y="0px"
	 viewBox="0 0 960 560" enable-background="new 0 0 960 560" xml:space="preserve">
<g id="GREY">
</g>
<g id="BLUE">
</g>
<g id="GREEN">
</g>
<g>
	<path fill="#7AD307" d="M609.2,344.6C609.2,215.4,480,86.2,480,86.2S350.8,215.4,350.8,344.6c0,81.8,68.9,129.2,129.2,129.2
		S609.2,426.5,609.2,344.6z M480,441.5c-53.8,0-96.9-43.1-96.9-96.9s43.1-96.9,96.9-96.9s96.9,43.1,96.9,96.9S533.8,441.5,480,441.5
		z"/>
	<path fill="#FFFFFF" d="M582.7,341.9C582.7,234.9,480,128,480,128S377.3,234.9,377.3,341.9c0,67.7,54.8,106.9,102.7,106.9
		S582.7,409.6,582.7,341.9z"/>
	<path fill="#7AD307" d="M556.4,345.6c0-40.9-34.5-75.4-75.4-75.4s-75.4,34.5-75.4,75.4S440.1,421,481,421S556.4,386.5,556.4,345.6z
		"/>
</g>
</svg>
