<?xml version="1.0" encoding="utf-8"?>
<!-- Generator: Adobe Illustrator 18.1.1, SVG Export Plug-In . SVG Version: 6.00 Build 0)  -->
<svg version="1.1" xmlns="http://www.w3.org/2000/svg" xmlns:xlink="http://www.w3.org/1999/xlink" x="0px" y="0px"
	 viewBox="0 0 26 26" enable-background="new 0 0 26 26" xml:space="preserve">
<g id="GREY">
</g>
<g id="BLUE">
</g>
<g id="GREEN">
</g>
<g id="RED">
	<path fill="#10BFC4" d="M19,16c0-6-6-12-6-12s-6,6-6,12c0,3.8,3.2,6,6,6C15.8,22,19,19.8,19,16z M13,20.5c-2.5,0-4.5-2-4.5-4.5
		s2-4.5,4.5-4.5c2.5,0,4.5,2,4.5,4.5S15.5,20.5,13,20.5z"/>
	<path fill="#FFFFFF" d="M13,20.5c-2.5,0-4.5-2-4.5-4.5s2-4.5,4.5-4.5c2.5,0,4.5,2,4.5,4.5S15.5,20.5,13,20.5z"/>
	<path fill="#10BFC4" d="M16.5,16c0-1.9-1.6-3.5-3.5-3.5c-1.9,0-3.5,1.6-3.5,3.5s1.6,3.5,3.5,3.5C14.9,19.5,16.5,17.9,16.5,16z"/>
	<polyline fill="none" stroke="#FCEE21" stroke-miterlimit="10" points="11,9 13,6.6 15,9 	"/>
</g>
</svg>
