<?xml version="1.0" encoding="utf-8"?>
<!-- Generator: Adobe Illustrator 16.0.4, SVG Export Plug-In . SVG Version: 6.00 Build 0)  -->
<!DOCTYPE svg PUBLIC "-//W3C//DTD SVG 1.1//EN" "http://www.w3.org/Graphics/SVG/1.1/DTD/svg11.dtd">
<svg version="1.1" id="Layer_1" xmlns="http://www.w3.org/2000/svg" xmlns:xlink="http://www.w3.org/1999/xlink" x="0px" y="0px"
	 width="1280px" height="800px" viewBox="0 0 1280 800" enable-background="new 0 0 1280 800" xml:space="preserve">
<g>
	<g>
		<path fill="#FF0000" d="M506.667,711.111c-160,0-288.889-128.89-288.889-288.89c0-160,128.889-288.889,288.889-288.889h266.666
			c160,0,288.89,128.889,288.89,288.889c0,160-128.89,288.89-288.89,288.89H506.667z"/>
		<path fill="#EE0000" d="M773.333,133.333C920,133.333,1040,253.333,1040,400S920,666.667,773.333,666.667H506.667
			C360,666.667,240,546.667,240,400s120-266.667,266.667-266.667H773.333 M773.333,88.889H506.667
			c-168.889,0-311.111,142.223-311.111,311.111c0,168.888,137.778,311.111,311.111,311.111h266.666
			c173.334,0,311.111-137.778,311.111-311.111S942.223,88.889,773.333,88.889L773.333,88.889z"/>
		<path fill="#FFFFFF" d="M773.333,88.889c173.334,0,311.111,142.223,311.111,311.111c0,168.888-142.222,311.111-311.111,311.111
			H506.667c-173.333,0-311.111-137.778-311.111-311.111S333.334,88.889,506.667,88.889H773.333 M773.333,44.444H506.667
			c-195.556,0-355.556,160-355.556,355.556c0,195.556,160,355.556,355.556,355.556h266.666c195.556,0,355.556-160,355.556-355.556
			C1128.889,204.444,968.889,44.444,773.333,44.444L773.333,44.444z"/>
		<path fill="#383836" d="M773.333,44.444c195.556,0,355.556,160,355.556,355.556c0,195.556-160,355.556-355.556,355.556H506.667
			c-195.556,0-355.556-160-355.556-355.556c0-195.556,160-355.556,355.556-355.556H773.333 M773.333,0H506.667
			c-222.223,0-400,177.778-400,400c0,222.223,177.778,400,400,400h266.666c222.223,0,400-177.777,400-400
			C1173.333,177.778,995.556,0,773.333,0L773.333,0z"/>
	</g>
</g>
<polygon fill="#FFFFFF" points="453.549,541.443 640,218.5 826.451,541.443 "/>
</svg>
