<?xml version="1.0" encoding="utf-8"?>
<!-- Generator: Adobe Illustrator 16.0.4, SVG Export Plug-In . SVG Version: 6.00 Build 0)  -->
<!DOCTYPE svg PUBLIC "-//W3C//DTD SVG 1.1//EN" "http://www.w3.org/Graphics/SVG/1.1/DTD/svg11.dtd">
<svg version="1.1" id="Layer_1" xmlns="http://www.w3.org/2000/svg" xmlns:xlink="http://www.w3.org/1999/xlink" x="0px" y="0px"
	 width="1280px" height="800px" viewBox="0 0 1280 800" enable-background="new 0 0 1280 800" xml:space="preserve">
<g>
	<g>
		<path fill="#FF0000" d="M540,633.333c-120,0-216.667-96.666-216.667-216.666C323.333,296.667,420,200,540,200h200
			c120,0,216.667,96.667,216.667,216.667c0,120-96.667,216.666-216.667,216.666H540z"/>
		<path fill="#EE0000" d="M740,200c110,0,200,90,200,200s-90,200-200,200H540c-110,0-200-90-200-200s90-200,200-200H740
			 M740,166.667H540c-126.667,0-233.333,106.667-233.333,233.333C306.667,526.667,410,633.333,540,633.333h200
			C870,633.333,973.333,530,973.333,400S866.667,166.667,740,166.667L740,166.667z"/>
		<path fill="#FFFFFF" d="M740,166.667c130,0,233.333,106.667,233.333,233.333c0,126.667-106.666,233.333-233.333,233.333H540
			C410,633.333,306.667,530,306.667,400S410,166.667,540,166.667H740 M740,133.333H540c-146.667,0-266.667,120-266.667,266.667
			c0,146.667,120,266.667,266.667,266.667h200c146.667,0,266.667-120,266.667-266.667C1006.667,253.333,886.667,133.333,740,133.333
			L740,133.333z"/>
		<path fill="#383836" d="M740,133.333c146.667,0,266.667,120,266.667,266.667c0,146.667-120,266.667-266.667,266.667H540
			c-146.667,0-266.667-120-266.667-266.667c0-146.667,120-266.667,266.667-266.667H740 M740,100H540c-166.667,0-300,133.333-300,300
			c0,166.667,133.333,300,300,300h200c166.667,0,300-133.333,300-300C1040,233.333,906.667,100,740,100L740,100z"/>
	</g>
</g>
<polygon fill="#FFFFFF" points="498.549,510 640,265 781.45,510 "/>
</svg>
