<?xml version="1.0" standalone="yes"?>
<svg version="1.1"  viewBox="0.0 0.0 100.0 176.34383202099738" fill="none" width="18" height="30" stroke="none" stroke-linecap="square" stroke-miterlimit="10" xmlns="http://www.w3.org/2000/svg" xmlns:xlink="http://www.w3.org/1999/xlink"><clipPath id="p.0"><path d="m0 0l100.0 0l0 176.34383l-100.0 0l0 -176.34383z" clip-rule="nonzero"></path></clipPath><g clip-path="url(#p.0)"><path fill="#000000" fill-opacity="0.0" d="m0 0l100.0 0l0 176.34383l-100.0 0z" fill-rule="evenodd"></path><path fill="#efefef" d="m7.6376705 58.68504l85.078735 0l-42.539368 115.43831z" fill-rule="evenodd"></path><path stroke="#000000" stroke-width="1.0" stroke-linejoin="round" stroke-linecap="butt" d="m7.6376705 58.68504l85.078735 0l-42.539368 115.43831z" fill-rule="evenodd"></path><path fill="#efefef" d="m4.2099576 43.220474l0 0c0 -22.221853 20.580801 -40.23622 45.968506 -40.23622l0 0c25.3877 0 45.968502 18.01437 45.968502 40.23622l0 0c0 22.221848 -20.580803 40.23622 -45.968502 40.23622l0 0c-25.387705 0 -45.968506 -18.014374 -45.968506 -40.23622z" fill-rule="evenodd"></path><path stroke="#000000" stroke-width="1.0" stroke-linejoin="round" stroke-linecap="butt" d="m4.2099576 43.220474l0 0c0 -22.221853 20.580801 -40.23622 45.968506 -40.23622l0 0c25.3877 0 45.968502 18.01437 45.968502 40.23622l0 0c0 22.221848 -20.580803 40.23622 -45.968502 40.23622l0 0c-25.387705 0 -45.968506 -18.014374 -45.968506 -40.23622z" fill-rule="evenodd"></path><path fill="#efefef" d="m7.640421 56.755905l85.07874 0l-42.53937 115.438324z" fill-rule="evenodd"></path><path fill="#000000" d="m26.38189 43.220474l0 0c0 -13.141769 10.653507 -23.795277 23.795277 -23.795277l0 0c6.310898 0 12.363319 2.5069942 16.825802 6.969475c4.4624786 4.4624786 6.969475 10.5149 6.969475 16.825802l0 0c0 13.141766 -10.653511 23.795273 -23.795277 23.795273l0 0c-13.141769 0 -23.795277 -10.653507 -23.795277 -23.795273z" fill-rule="evenodd"></path><path stroke="#000000" stroke-width="1.0" stroke-linejoin="round" stroke-linecap="butt" d="m26.38189 43.220474l0 0c0 -13.141769 10.653507 -23.795277 23.795277 -23.795277l0 0c6.310898 0 12.363319 2.5069942 16.825802 6.969475c4.4624786 4.4624786 6.969475 10.5149 6.969475 16.825802l0 0c0 13.141766 -10.653511 23.795273 -23.795277 23.795273l0 0c-13.141769 0 -23.795277 -10.653507 -23.795277 -23.795273z" fill-rule="evenodd"></path></g></svg>

