<?xml version="1.0" standalone="yes"?>

<svg version="1.1" height="35px"  viewBox="0.0 0.0 127.09448818897638 214.08923884514437" fill="none" stroke="none" stroke-linecap="square" stroke-miterlimit="10" xmlns="http://www.w3.org/2000/svg" xmlns:xlink="http://www.w3.org/1999/xlink"><clipPath id="p.0"><path d="m0 0l127.09449 0l0 214.08923l-127.09449 0l0 -214.08923z" clip-rule="nonzero"></path></clipPath><g clip-path="url(#p.0)"><path fill="#000000" fill-opacity="0.0" d="m0 0l127.09449 0l0 214.08923l-127.09449 0z" fill-rule="evenodd"></path><path fill="#9900ff" fill-opacity="0.3231" d="m16.53937 95.144356l94.01575 0l-47.00787 115.43832z" fill-rule="evenodd"></path><path stroke="#000000" stroke-width="1.0" stroke-linejoin="round" stroke-linecap="butt" d="m16.53937 95.144356l94.01575 0l-47.00787 115.43832z" fill-rule="evenodd"></path><path fill="#00ffff" d="m2.2559056 61.2231l0 0c0 -31.875963 27.441067 -57.716537 61.29134 -57.716537l0 0c16.255474 0 31.845165 6.080832 43.33952 16.904781c11.494354 10.823952 17.95182 25.50438 17.95182 40.811756l0 0c0 31.875961 -27.44107 57.716537 -61.29134 57.716537l0 0c-33.850273 0 -61.29134 -25.840576 -61.29134 -57.716537z" fill-rule="evenodd"></path><path stroke="#000000" stroke-width="1.0" stroke-linejoin="round" stroke-linecap="butt" d="m2.2559056 61.2231l0 0c0 -31.875963 27.441067 -57.716537 61.29134 -57.716537l0 0c16.255474 0 31.845165 6.080832 43.33952 16.904781c11.494354 10.823952 17.95182 25.50438 17.95182 40.811756l0 0c0 31.875961 -27.44107 57.716537 -61.29134 57.716537l0 0c-33.850273 0 -61.29134 -25.840576 -61.29134 -57.716537z" fill-rule="evenodd"></path><path fill="#93c47d" d="m39.75197 61.2231l0 0c0 -13.141769 10.653507 -23.795277 23.795277 -23.795277l0 0c6.3109016 0 12.363323 2.5069962 16.825802 6.969475c4.4624786 4.4624786 6.969475 10.5149 6.969475 16.825802l0 0c0 13.141769 -10.653511 23.795273 -23.795277 23.795273l0 0c-13.141769 0 -23.795277 -10.653503 -23.795277 -23.795273z" fill-rule="evenodd"></path><path stroke="#000000" stroke-width="1.0" stroke-linejoin="round" stroke-linecap="butt" d="m39.75197 61.2231l0 0c0 -13.141769 10.653507 -23.795277 23.795277 -23.795277l0 0c6.3109016 0 12.363323 2.5069962 16.825802 6.969475c4.4624786 4.4624786 6.969475 10.5149 6.969475 16.825802l0 0c0 13.141769 -10.653511 23.795273 -23.795277 23.795273l0 0c-13.141769 0 -23.795277 -10.653503 -23.795277 -23.795273z" fill-rule="evenodd"></path></g></svg>

