<?xml version="1.0" standalone="yes"?><svg version="1.1"  viewBox="0.0 0.0 100.0 176.34383202099738" fill="none" width="18" height="30" stroke="none" stroke-linecap="square" stroke-miterlimit="10" xmlns="http://www.w3.org/2000/svg" xmlns:xlink="http://www.w3.org/1999/xlink"><clipPath id="p.0"><path d="m0 0l100.0 0l0 176.34383l-100.0 0l0 -176.34383z" clip-rule="nonzero"></path></clipPath><g clip-path="url(#p.0)"><path fill="#000000" fill-opacity="0.0" d="m0 0l100.0 0l0 176.34383l-100.0 0z" fill-rule="evenodd"></path><path fill="#efefef" d="m7.6376705 58.68504l85.078735 0l-42.539368 115.43831z" fill-rule="evenodd"></path><path stroke="#000000" stroke-width="1.0" stroke-linejoin="round" stroke-linecap="butt" d="m7.6376705 58.68504l85.078735 0l-42.539368 115.43831z" fill-rule="evenodd"></path><path fill="#efefef" d="m4.2099576 43.220474l0 0c0 -22.221853 20.580801 -40.23622 45.968506 -40.23622l0 0c25.3877 0 45.968502 18.01437 45.968502 40.23622l0 0c0 22.221848 -20.580803 40.23622 -45.968502 40.23622l0 0c-25.387705 0 -45.968506 -18.014374 -45.968506 -40.23622z" fill-rule="evenodd"></path><path stroke="#000000" stroke-width="1.0" stroke-linejoin="round" stroke-linecap="butt" d="m4.2099576 43.220474l0 0c0 -22.221853 20.580801 -40.23622 45.968506 -40.23622l0 0c25.3877 0 45.968502 18.01437 45.968502 40.23622l0 0c0 22.221848 -20.580803 40.23622 -45.968502 40.23622l0 0c-25.387705 0 -45.968506 -18.014374 -45.968506 -40.23622z" fill-rule="evenodd"></path><path fill="#efefef" d="m7.640421 56.755905l85.07874 0l-42.53937 115.438324z" fill-rule="evenodd"></path><circle cx="51" cy="42" r="31" fill="#000000"></circle><circle cx="51" cy="42" r="29" fill="#FFFFFF"></circle><circle cx="51" cy="42" r="30" fill="#2AA2D4"></circle><circle cx="51" cy="42" r="15" fill="#2AA2D4"></circle><circle cx="51" cy="42" r="10"  fill="#CF0026"></circle></g></svg>