<svg xmlns="http://www.w3.org/2000/svg" id="mapspinner" viewBox="0 0 500 500" width="64" height="64"><path d="M220 100A220 220 0 0 1 255.42 30.07 50 50 0 0 1 252.96 130.04 120 120 0 0 0 220 100" fill="rgb(0,0,0)"/><path d="M255.42 30.07A220 220 0 0 1 260.84 30.27 50 50 0 0 1 255.91 130.15 120 120 0 0 0 252.96 130.04" fill="rgb(1,1,1)"/><path d="M260.84 30.27A220 220 0 0 1 266.25 30.6 50 50 0 0 1 258.86 130.33 120 120 0 0 0 255.91 130.15" fill="rgb(2,2,2)"/><path d="M266.25 30.6A220 220 0 0 1 271.65 31.07 50 50 0 0 1 261.81 130.58 120 120 0 0 0 258.86 130.33" fill="rgb(3,3,3)"/><path d="M271.65 31.07A220 220 0 0 1 277.04 31.67 50 50 0 0 1 264.75 130.91 120 120 0 0 0 261.81 130.58" fill="rgb(4,4,4)"/><path d="M277.04 31.67A220 220 0 0 1 282.41 32.4 50 50 0 0 1 267.68 131.31 120 120 0 0 0 264.75 130.91" fill="rgb(5,5,5)"/><path d="M282.41 32.4A220 220 0 0 1 287.76 33.26 50 50 0 0 1 270.6 131.78 120 120 0 0 0 267.68 131.31" fill="rgb(6,6,6)"/><path d="M287.76 33.26A220 220 0 0 1 293.09 34.26 50 50 0 0 1 273.5 132.32 120 120 0 0 0 270.6 131.78" fill="rgb(7,7,7)"/><path d="M293.09 34.26A220 220 0 0 1 298.39 35.39 50 50 0 0 1 276.39 132.94 120 120 0 0 0 273.5 132.32" fill="rgb(8,8,8)"/><path d="M298.39 35.39A220 220 0 0 1 303.66 36.64 50 50 0 0 1 279.27 133.62 120 120 0 0 0 276.39 132.94" fill="rgb(9,9,9)"/><path d="M303.66 36.64A220 220 0 0 1 308.9 38.03 50 50 0 0 1 282.13 134.38 120 120 0 0 0 279.27 133.62" fill="rgb(10,10,10)"/><path d="M308.9 38.03A220 220 0 0 1 314.11 39.55 50 50 0 0 1 284.97 135.21 120 120 0 0 0 282.13 134.38" fill="rgb(11,11,11)"/><path d="M314.11 39.55A220 220 0 0 1 319.27 41.19 50 50 0 0 1 287.78 136.1 120 120 0 0 0 284.97 135.21" fill="rgb(12,12,12)"/><path d="M319.27 41.19A220 220 0 0 1 324.39 42.96 50 50 0 0 1 290.58 137.07 120 120 0 0 0 287.78 136.1" fill="rgb(13,13,13)"/><path d="M324.39 42.96A220 220 0 0 1 329.47 44.86 50 50 0 0 1 293.35 138.1 120 120 0 0 0 290.58 137.07" fill="rgb(14,14,14)"/><path d="M329.47 44.86A220 220 0 0 1 334.5 46.88 50 50 0 0 1 296.09 139.21 120 120 0 0 0 293.35 138.1" fill="rgb(15,15,15)"/><path d="M334.5 46.88A220 220 0 0 1 339.48 49.02 50 50 0 0 1 298.81 140.37 120 120 0 0 0 296.09 139.21" fill="rgb(16,16,16)"/><path d="M339.48 49.02A220 220 0 0 1 344.41 51.29 50 50 0 0 1 301.49 141.61 120 120 0 0 0 298.81 140.37" fill="rgb(17,17,17)"/><path d="M344.41 51.29A220 220 0 0 1 349.27 53.67 50 50 0 0 1 304.15 142.91 120 120 0 0 0 301.49 141.61" fill="rgb(18,18,18)"/><path d="M349.27 53.67A220 220 0 0 1 354.08 56.18 50 50 0 0 1 306.77 144.28 120 120 0 0 0 304.15 142.91" fill="rgb(19,19,19)"/><path d="M354.08 56.18A220 220 0 0 1 358.82 58.8 50 50 0 0 1 309.36 145.71 120 120 0 0 0 306.77 144.28" fill="rgb(20,20,20)"/><path d="M358.82 58.8A220 220 0 0 1 363.5 61.54 50 50 0 0 1 311.91 147.2 120 120 0 0 0 309.36 145.71" fill="rgb(21,21,21)"/><path d="M363.5 61.54A220 220 0 0 1 368.11 64.39 50 50 0 0 1 314.42 148.76 120 120 0 0 0 311.91 147.2" fill="rgb(22,22,22)"/><path d="M368.11 64.39A220 220 0 0 1 372.65 67.36 50 50 0 0 1 316.9 150.38 120 120 0 0 0 314.42 148.76" fill="rgb(23,23,23)"/><path d="M372.65 67.36A220 220 0 0 1 377.11 70.44 50 50 0 0 1 319.33 152.06 120 120 0 0 0 316.9 150.38" fill="rgb(24,24,24)"/><path d="M377.11 70.44A220 220 0 0 1 381.5 73.62 50 50 0 0 1 321.72 153.79 120 120 0 0 0 319.33 152.06" fill="rgb(25,25,25)"/><path d="M381.5 73.62A220 220 0 0 1 385.8 76.92 50 50 0 0 1 324.07 155.59 120 120 0 0 0 321.72 153.79" fill="rgb(26,26,26)"/><path d="M385.8 76.92A220 220 0 0 1 390.02 80.31 50 50 0 0 1 326.38 157.44 120 120 0 0 0 324.07 155.59" fill="rgb(27,27,27)"/><path d="M390.02 80.31A220 220 0 0 1 394.16 83.82 50 50 0 0 1 328.63 159.35 120 120 0 0 0 326.38 157.44" fill="rgb(28,28,28)"/><path d="M394.16 83.82A220 220 0 0 1 398.21 87.42 50 50 0 0 1 330.84 161.32 120 120 0 0 0 328.63 159.35" fill="rgb(29,29,29)"/><path d="M398.21 87.42A220 220 0 0 1 402.17 91.12 50 50 0 0 1 333 163.34 120 120 0 0 0 330.84 161.32" fill="rgb(30,30,30)"/><path d="M402.17 91.12A220 220 0 0 1 406.04 94.92 50 50 0 0 1 335.11 165.41 120 120 0 0 0 333 163.34" fill="rgb(31,31,31)"/><path d="M406.04 94.92A220 220 0 0 1 409.82 98.81 50 50 0 0 1 337.17 167.53 120 120 0 0 0 335.11 165.41" fill="rgb(32,32,32)"/><path d="M409.82 98.81A220 220 0 0 1 413.49 102.79 50 50 0 0 1 339.18 169.7 120 120 0 0 0 337.17 167.53" fill="rgb(33,33,33)"/><path d="M413.49 102.79A220 220 0 0 1 417.07 106.86 50 50 0 0 1 341.13 171.93 120 120 0 0 0 339.18 169.7" fill="rgb(34,34,34)"/><path d="M417.07 106.86A220 220 0 0 1 420.54 111.02 50 50 0 0 1 343.02 174.19 120 120 0 0 0 341.13 171.93" fill="rgb(35,35,35)"/><path d="M420.54 111.02A220 220 0 0 1 423.92 115.27 50 50 0 0 1 344.86 176.51 120 120 0 0 0 343.02 174.19" fill="rgb(36,36,36)"/><path d="M423.92 115.27A220 220 0 0 1 427.18 119.59 50 50 0 0 1 346.65 178.87 120 120 0 0 0 344.86 176.51" fill="rgb(37,37,37)"/><path d="M427.18 119.59A220 220 0 0 1 430.34 124 50 50 0 0 1 348.37 181.27 120 120 0 0 0 346.65 178.87" fill="rgb(38,38,38)"/><path d="M430.34 124A220 220 0 0 1 433.39 128.48 50 50 0 0 1 350.03 183.72 120 120 0 0 0 348.37 181.27" fill="rgb(39,39,39)"/><path d="M433.39 128.48A220 220 0 0 1 436.33 133.03 50 50 0 0 1 351.63 186.2 120 120 0 0 0 350.03 183.72" fill="rgb(40,40,40)"/><path d="M436.33 133.03A220 220 0 0 1 439.16 137.66 50 50 0 0 1 353.18 188.72 120 120 0 0 0 351.63 186.2" fill="rgb(41,41,41)"/><path d="M439.16 137.66A220 220 0 0 1 441.87 142.36 50 50 0 0 1 354.65 191.28 120 120 0 0 0 353.18 188.72" fill="rgb(42,42,42)"/><path d="M441.87 142.36A220 220 0 0 1 444.46 147.12 50 50 0 0 1 356.07 193.88 120 120 0 0 0 354.65 191.28" fill="rgb(43,43,43)"/><path d="M444.46 147.12A220 220 0 0 1 446.94 151.94 50 50 0 0 1 357.42 196.51 120 120 0 0 0 356.07 193.88" fill="rgb(44,44,44)"/><path d="M446.94 151.94A220 220 0 0 1 449.29 156.82 50 50 0 0 1 358.7 199.17 120 120 0 0 0 357.42 196.51" fill="rgb(45,45,45)"/><path d="M449.29 156.82A220 220 0 0 1 451.53 161.76 50 50 0 0 1 359.92 201.87 120 120 0 0 0 358.7 199.17" fill="rgb(46,46,46)"/><path d="M451.53 161.76A220 220 0 0 1 453.64 166.75 50 50 0 0 1 361.08 204.59 120 120 0 0 0 359.92 201.87" fill="rgb(47,47,47)"/><path d="M453.64 166.75A220 220 0 0 1 455.63 171.79 50 50 0 0 1 362.16 207.34 120 120 0 0 0 361.08 204.59" fill="rgb(48,48,48)"/><path d="M455.63 171.79A220 220 0 0 1 457.49 176.88 50 50 0 0 1 363.18 210.12 120 120 0 0 0 362.16 207.34" fill="rgb(49,49,49)"/><path d="M457.49 176.88A220 220 0 0 1 459.23 182.02 50 50 0 0 1 364.13 212.92 120 120 0 0 0 363.18 210.12" fill="rgb(50,50,50)"/><path d="M459.23 182.02A220 220 0 0 1 460.84 187.19 50 50 0 0 1 365.01 215.74 120 120 0 0 0 364.13 212.92" fill="rgb(51,51,51)"/><path d="M460.84 187.19A220 220 0 0 1 462.33 192.41 50 50 0 0 1 365.81 218.58 120 120 0 0 0 365.01 215.74" fill="rgb(52,52,52)"/><path d="M462.33 192.41A220 220 0 0 1 463.68 197.65 50 50 0 0 1 366.55 221.45 120 120 0 0 0 365.81 218.58" fill="rgb(53,53,53)"/><path d="M463.68 197.65A220 220 0 0 1 464.91 202.93 50 50 0 0 1 367.22 224.33 120 120 0 0 0 366.55 221.45" fill="rgb(54,54,54)"/><path d="M464.91 202.93A220 220 0 0 1 466 208.24 50 50 0 0 1 367.82 227.22 120 120 0 0 0 367.22 224.33" fill="rgb(55,55,55)"/><path d="M466 208.24A220 220 0 0 1 466.96 213.58 50 50 0 0 1 368.34 230.13 120 120 0 0 0 367.82 227.22" fill="rgb(56,56,56)"/><path d="M466.96 213.58A220 220 0 0 1 467.8 218.93 50 50 0 0 1 368.8 233.06 120 120 0 0 0 368.34 230.13" fill="rgb(57,57,57)"/><path d="M467.8 218.93A220 220 0 0 1 468.49 224.31 50 50 0 0 1 369.18 235.99 120 120 0 0 0 368.8 233.06" fill="rgb(58,58,58)"/><path d="M468.49 224.31A220 220 0 0 1 469.06 229.7 50 50 0 0 1 369.49 238.93 120 120 0 0 0 369.18 235.99" fill="rgb(59,59,59)"/><path d="M469.06 229.7A220 220 0 0 1 469.5 235.1 50 50 0 0 1 369.72 241.88 120 120 0 0 0 369.49 238.93" fill="rgb(60,60,60)"/><path d="M469.5 235.1A220 220 0 0 1 469.8 240.52 50 50 0 0 1 369.89 244.83 120 120 0 0 0 369.72 241.88" fill="rgb(61,61,61)"/><path d="M469.8 240.52A220 220 0 0 1 469.96 245.93 50 50 0 0 1 369.98 247.78 120 120 0 0 0 369.89 244.83" fill="rgb(62,62,62)"/><path d="M469.96 245.93A220 220 0 0 1 470 251.36 50 50 0 0 1 370 250.74 120 120 0 0 0 369.98 247.78" fill="rgb(63,63,63)"/><path d="M470 251.36A220 220 0 0 1 469.9 256.77 50 50 0 0 1 369.94 253.7 120 120 0 0 0 370 250.74" fill="rgb(64,64,64)"/><path d="M469.9 256.77A220 220 0 0 1 469.66 262.19 50 50 0 0 1 369.82 256.65 120 120 0 0 0 369.94 253.7" fill="rgb(65,65,65)"/><path d="M469.66 262.19A220 220 0 0 1 469.29 267.6 50 50 0 0 1 369.62 259.6 120 120 0 0 0 369.82 256.65" fill="rgb(66,66,66)"/><path d="M469.29 267.6A220 220 0 0 1 468.79 273 50 50 0 0 1 369.34 262.54 120 120 0 0 0 369.62 259.6" fill="rgb(67,67,67)"/><path d="M468.79 273A220 220 0 0 1 468.16 278.38 50 50 0 0 1 369 265.48 120 120 0 0 0 369.34 262.54" fill="rgb(68,68,68)"/><path d="M468.16 278.38A220 220 0 0 1 467.4 283.75 50 50 0 0 1 368.58 268.41 120 120 0 0 0 369 265.48" fill="rgb(69,69,69)"/><path d="M467.4 283.75A220 220 0 0 1 466.5 289.09 50 50 0 0 1 368.09 271.32 120 120 0 0 0 368.58 268.41" fill="rgb(70,70,70)"/><path d="M466.5 289.09A220 220 0 0 1 465.47 294.41 50 50 0 0 1 367.53 274.23 120 120 0 0 0 368.09 271.32" fill="rgb(71,71,71)"/><path d="M465.47 294.41A220 220 0 0 1 464.31 299.71 50 50 0 0 1 366.9 277.11 120 120 0 0 0 367.53 274.23" fill="rgb(72,72,72)"/><path d="M464.31 299.71A220 220 0 0 1 463.02 304.97 50 50 0 0 1 366.19 279.99 120 120 0 0 0 366.9 277.11" fill="rgb(73,73,73)"/><path d="M463.02 304.97A220 220 0 0 1 461.6 310.21 50 50 0 0 1 365.42 282.84 120 120 0 0 0 366.19 279.99" fill="rgb(74,74,74)"/><path d="M461.6 310.21A220 220 0 0 1 460.05 315.4 50 50 0 0 1 364.57 285.67 120 120 0 0 0 365.42 282.84" fill="rgb(75,75,75)"/><path d="M460.05 315.4A220 220 0 0 1 458.38 320.56 50 50 0 0 1 363.66 288.49 120 120 0 0 0 364.57 285.67" fill="rgb(76,76,76)"/><path d="M458.38 320.56A220 220 0 0 1 456.58 325.67 50 50 0 0 1 362.68 291.27 120 120 0 0 0 363.66 288.49" fill="rgb(77,77,77)"/><path d="M456.58 325.67A220 220 0 0 1 454.65 330.74 50 50 0 0 1 361.63 294.04 120 120 0 0 0 362.68 291.27" fill="rgb(78,78,78)"/><path d="M454.65 330.74A220 220 0 0 1 452.6 335.75 50 50 0 0 1 360.51 296.77 120 120 0 0 0 361.63 294.04" fill="rgb(79,79,79)"/><path d="M452.6 335.75A220 220 0 0 1 450.42 340.72 50 50 0 0 1 359.32 299.48 120 120 0 0 0 360.51 296.77" fill="rgb(80,80,80)"/><path d="M450.42 340.72A220 220 0 0 1 448.13 345.63 50 50 0 0 1 358.07 302.16 120 120 0 0 0 359.32 299.48" fill="rgb(81,81,81)"/><path d="M448.13 345.63A220 220 0 0 1 445.71 350.48 50 50 0 0 1 356.75 304.81 120 120 0 0 0 358.07 302.16" fill="rgb(82,82,82)"/><path d="M445.71 350.48A220 220 0 0 1 443.18 355.27 50 50 0 0 1 355.37 307.42 120 120 0 0 0 356.75 304.81" fill="rgb(83,83,83)"/><path d="M443.18 355.27A220 220 0 0 1 440.53 360 50 50 0 0 1 353.92 310 120 120 0 0 0 355.37 307.42" fill="rgb(84,84,84)"/><path d="M440.53 360A220 220 0 0 1 437.76 364.66 50 50 0 0 1 352.41 312.54 120 120 0 0 0 353.92 310" fill="rgb(85,85,85)"/><path d="M437.76 364.66A220 220 0 0 1 434.88 369.25 50 50 0 0 1 350.84 315.05 120 120 0 0 0 352.41 312.54" fill="rgb(86,86,86)"/><path d="M434.88 369.25A220 220 0 0 1 431.88 373.77 50 50 0 0 1 349.21 317.51 120 120 0 0 0 350.84 315.05" fill="rgb(87,87,87)"/><path d="M431.88 373.77A220 220 0 0 1 428.78 378.21 50 50 0 0 1 347.51 319.93 120 120 0 0 0 349.21 317.51" fill="rgb(88,88,88)"/><path d="M428.78 378.21A220 220 0 0 1 425.56 382.58 50 50 0 0 1 345.76 322.32 120 120 0 0 0 347.51 319.93" fill="rgb(89,89,89)"/><path d="M425.56 382.58A220 220 0 0 1 422.24 386.86 50 50 0 0 1 343.95 324.65 120 120 0 0 0 345.76 322.32" fill="rgb(90,90,90)"/><path d="M422.24 386.86A220 220 0 0 1 418.82 391.07 50 50 0 0 1 342.08 326.95 120 120 0 0 0 343.95 324.65" fill="rgb(91,91,91)"/><path d="M418.82 391.07A220 220 0 0 1 415.29 395.18 50 50 0 0 1 340.16 329.19 120 120 0 0 0 342.08 326.95" fill="rgb(92,92,92)"/><path d="M415.29 395.18A220 220 0 0 1 411.67 399.21 50 50 0 0 1 338.18 331.39 120 120 0 0 0 340.16 329.19" fill="rgb(93,93,93)"/><path d="M411.67 399.21A220 220 0 0 1 407.94 403.15 50 50 0 0 1 336.15 333.54 120 120 0 0 0 338.18 331.39" fill="rgb(94,94,94)"/><path d="M407.94 403.15A220 220 0 0 1 404.12 406.99 50 50 0 0 1 334.07 335.63 120 120 0 0 0 336.15 333.54" fill="rgb(95,95,95)"/><path d="M404.12 406.99A220 220 0 0 1 400.2 410.74 50 50 0 0 1 331.93 337.68 120 120 0 0 0 334.07 335.63" fill="rgb(96,96,96)"/><path d="M400.2 410.74A220 220 0 0 1 396.2 414.4 50 50 0 0 1 329.74 339.67 120 120 0 0 0 331.93 337.68" fill="rgb(97,97,97)"/><path d="M396.2 414.4A220 220 0 0 1 392.1 417.95 50 50 0 0 1 327.51 341.61 120 120 0 0 0 329.74 339.67" fill="rgb(98,98,98)"/><path d="M392.1 417.95A220 220 0 0 1 387.92 421.4 50 50 0 0 1 325.23 343.49 120 120 0 0 0 327.51 341.61" fill="rgb(99,99,99)"/><path d="M387.92 421.4A220 220 0 0 1 383.66 424.74 50 50 0 0 1 322.9 345.31 120 120 0 0 0 325.23 343.49" fill="rgb(100,100,100)"/><path d="M383.66 424.74A220 220 0 0 1 379.31 427.98 50 50 0 0 1 320.53 347.08 120 120 0 0 0 322.9 345.31" fill="rgb(101,101,101)"/><path d="M379.31 427.98A220 220 0 0 1 374.89 431.12 50 50 0 0 1 318.12 348.79 120 120 0 0 0 320.53 347.08" fill="rgb(102,102,102)"/><path d="M374.89 431.12A220 220 0 0 1 370.39 434.14 50 50 0 0 1 315.67 350.44 120 120 0 0 0 318.12 348.79" fill="rgb(103,103,103)"/><path d="M370.39 434.14A220 220 0 0 1 365.82 437.05 50 50 0 0 1 313.17 352.03 120 120 0 0 0 315.67 350.44" fill="rgb(104,104,104)"/><path d="M365.82 437.05A220 220 0 0 1 361.17 439.84 50 50 0 0 1 310.64 353.55 120 120 0 0 0 313.17 352.03" fill="rgb(105,105,105)"/><path d="M361.17 439.84A220 220 0 0 1 356.46 442.53 50 50 0 0 1 308.07 355.01 120 120 0 0 0 310.64 353.55" fill="rgb(106,106,106)"/><path d="M356.46 442.53A220 220 0 0 1 351.68 445.09 50 50 0 0 1 305.46 356.41 120 120 0 0 0 308.07 355.01" fill="rgb(107,107,107)"/><path d="M351.68 445.09A220 220 0 0 1 346.85 447.54 50 50 0 0 1 302.83 357.75 120 120 0 0 0 305.46 356.41" fill="rgb(108,108,108)"/><path d="M346.85 447.54A220 220 0 0 1 341.95 449.86 50 50 0 0 1 300.16 359.02 120 120 0 0 0 302.83 357.75" fill="rgb(109,109,109)"/><path d="M341.95 449.86A220 220 0 0 1 337 452.07 50 50 0 0 1 297.45 360.22 120 120 0 0 0 300.16 359.02" fill="rgb(110,110,110)"/><path d="M337 452.07A220 220 0 0 1 331.99 454.15 50 50 0 0 1 294.72 361.35 120 120 0 0 0 297.45 360.22" fill="rgb(111,111,111)"/><path d="M331.99 454.15A220 220 0 0 1 326.94 456.11 50 50 0 0 1 291.97 362.42 120 120 0 0 0 294.72 361.35" fill="rgb(112,112,112)"/><path d="M326.94 456.11A220 220 0 0 1 321.84 457.94 50 50 0 0 1 289.18 363.42 120 120 0 0 0 291.97 362.42" fill="rgb(113,113,113)"/><path d="M321.84 457.94A220 220 0 0 1 316.69 459.65 50 50 0 0 1 286.38 364.35 120 120 0 0 0 289.18 363.42" fill="rgb(114,114,114)"/><path d="M316.69 459.65A220 220 0 0 1 311.51 461.23 50 50 0 0 1 283.55 365.21 120 120 0 0 0 286.38 364.35" fill="rgb(115,115,115)"/><path d="M311.51 461.23A220 220 0 0 1 306.29 462.68 50 50 0 0 1 280.7 366.01 120 120 0 0 0 283.55 365.21" fill="rgb(116,116,116)"/><path d="M306.29 462.68A220 220 0 0 1 301.03 464 50 50 0 0 1 277.83 366.73 120 120 0 0 0 280.7 366.01" fill="rgb(117,117,117)"/><path d="M301.03 464A220 220 0 0 1 295.74 465.19 50 50 0 0 1 274.95 367.38 120 120 0 0 0 277.83 366.73" fill="rgb(118,118,118)"/><path d="M295.74 465.19A220 220 0 0 1 290.42 466.25 50 50 0 0 1 272.05 367.96 120 120 0 0 0 274.95 367.38" fill="rgb(119,119,119)"/><path d="M290.42 466.25A220 220 0 0 1 285.08 467.18 50 50 0 0 1 269.14 368.46 120 120 0 0 0 272.05 367.96" fill="rgb(120,120,120)"/><path d="M285.08 467.18A220 220 0 0 1 279.72 467.98 50 50 0 0 1 266.21 368.9 120 120 0 0 0 269.14 368.46" fill="rgb(121,121,121)"/><path d="M279.72 467.98A220 220 0 0 1 274.34 468.65 50 50 0 0 1 263.28 369.26 120 120 0 0 0 266.21 368.9" fill="rgb(122,122,122)"/><path d="M274.34 468.65A220 220 0 0 1 268.95 469.18 50 50 0 0 1 260.34 369.55 120 120 0 0 0 263.28 369.26" fill="rgb(123,123,123)"/><path d="M268.95 469.18A220 220 0 0 1 263.54 469.58 50 50 0 0 1 257.39 369.77 120 120 0 0 0 260.34 369.55" fill="rgb(124,124,124)"/><path d="M263.54 469.58A220 220 0 0 1 258.13 469.85 50 50 0 0 1 254.43 369.92 120 120 0 0 0 257.39 369.77" fill="rgb(125,125,125)"/><path d="M258.13 469.85A220 220 0 0 1 252.71 469.98 50 50 0 0 1 251.48 369.99 120 120 0 0 0 254.43 369.92" fill="rgb(126,126,126)"/><path d="M252.71 469.98A220 220 0 0 1 247.29 469.98 50 50 0 0 1 248.52 369.99 120 120 0 0 0 251.48 369.99" fill="rgb(127,127,127)"/><path d="M247.29 469.98A220 220 0 0 1 241.87 469.85 50 50 0 0 1 245.57 369.92 120 120 0 0 0 248.52 369.99" fill="rgb(128,128,128)"/><path d="M241.87 469.85A220 220 0 0 1 236.46 469.58 50 50 0 0 1 242.61 369.77 120 120 0 0 0 245.57 369.92" fill="rgb(129,129,129)"/><path d="M236.46 469.58A220 220 0 0 1 231.05 469.18 50 50 0 0 1 239.66 369.55 120 120 0 0 0 242.61 369.77" fill="rgb(130,130,130)"/><path d="M231.05 469.18A220 220 0 0 1 225.66 468.65 50 50 0 0 1 236.72 369.26 120 120 0 0 0 239.66 369.55" fill="rgb(131,131,131)"/><path d="M225.66 468.65A220 220 0 0 1 220.28 467.98 50 50 0 0 1 233.79 368.9 120 120 0 0 0 236.72 369.26" fill="rgb(132,132,132)"/><path d="M220.28 467.98A220 220 0 0 1 214.92 467.18 50 50 0 0 1 230.86 368.46 120 120 0 0 0 233.79 368.9" fill="rgb(133,133,133)"/><path d="M214.92 467.18A220 220 0 0 1 209.58 466.25 50 50 0 0 1 227.95 367.96 120 120 0 0 0 230.86 368.46" fill="rgb(134,134,134)"/><path d="M209.58 466.25A220 220 0 0 1 204.26 465.19 50 50 0 0 1 225.05 367.38 120 120 0 0 0 227.95 367.96" fill="rgb(135,135,135)"/><path d="M204.26 465.19A220 220 0 0 1 198.97 464 50 50 0 0 1 222.17 366.73 120 120 0 0 0 225.05 367.38" fill="rgb(136,136,136)"/><path d="M198.97 464A220 220 0 0 1 193.71 462.68 50 50 0 0 1 219.3 366.01 120 120 0 0 0 222.17 366.73" fill="rgb(137,137,137)"/><path d="M193.71 462.68A220 220 0 0 1 188.49 461.23 50 50 0 0 1 216.45 365.21 120 120 0 0 0 219.3 366.01" fill="rgb(138,138,138)"/><path d="M188.49 461.23A220 220 0 0 1 183.31 459.65 50 50 0 0 1 213.62 364.35 120 120 0 0 0 216.45 365.21" fill="rgb(139,139,139)"/><path d="M183.31 459.65A220 220 0 0 1 178.16 457.94 50 50 0 0 1 210.82 363.42 120 120 0 0 0 213.62 364.35" fill="rgb(140,140,140)"/><path d="M178.16 457.94A220 220 0 0 1 173.06 456.11 50 50 0 0 1 208.03 362.42 120 120 0 0 0 210.82 363.42" fill="rgb(141,141,141)"/><path d="M173.06 456.11A220 220 0 0 1 168.01 454.15 50 50 0 0 1 205.28 361.35 120 120 0 0 0 208.03 362.42" fill="rgb(142,142,142)"/><path d="M168.01 454.15A220 220 0 0 1 163 452.07 50 50 0 0 1 202.55 360.22 120 120 0 0 0 205.28 361.35" fill="rgb(143,143,143)"/><path d="M163 452.07A220 220 0 0 1 158.05 449.86 50 50 0 0 1 199.84 359.02 120 120 0 0 0 202.55 360.22" fill="rgb(144,144,144)"/><path d="M158.05 449.86A220 220 0 0 1 153.15 447.54 50 50 0 0 1 197.17 357.75 120 120 0 0 0 199.84 359.02" fill="rgb(145,145,145)"/><path d="M153.15 447.54A220 220 0 0 1 148.32 445.09 50 50 0 0 1 194.54 356.41 120 120 0 0 0 197.17 357.75" fill="rgb(146,146,146)"/><path d="M148.32 445.09A220 220 0 0 1 143.54 442.53 50 50 0 0 1 191.93 355.01 120 120 0 0 0 194.54 356.41" fill="rgb(147,147,147)"/><path d="M143.54 442.53A220 220 0 0 1 138.83 439.84 50 50 0 0 1 189.36 353.55 120 120 0 0 0 191.93 355.01" fill="rgb(148,148,148)"/><path d="M138.83 439.84A220 220 0 0 1 134.18 437.05 50 50 0 0 1 186.83 352.03 120 120 0 0 0 189.36 353.55" fill="rgb(149,149,149)"/><path d="M134.18 437.05A220 220 0 0 1 129.61 434.14 50 50 0 0 1 184.33 350.44 120 120 0 0 0 186.83 352.03" fill="rgb(150,150,150)"/><path d="M129.61 434.14A220 220 0 0 1 125.11 431.12 50 50 0 0 1 181.88 348.79 120 120 0 0 0 184.33 350.44" fill="rgb(151,151,151)"/><path d="M125.11 431.12A220 220 0 0 1 120.69 427.98 50 50 0 0 1 179.47 347.08 120 120 0 0 0 181.88 348.79" fill="rgb(152,152,152)"/><path d="M120.69 427.98A220 220 0 0 1 116.34 424.74 50 50 0 0 1 177.1 345.31 120 120 0 0 0 179.47 347.08" fill="rgb(153,153,153)"/><path d="M116.34 424.74A220 220 0 0 1 112.08 421.4 50 50 0 0 1 174.77 343.49 120 120 0 0 0 177.1 345.31" fill="rgb(154,154,154)"/><path d="M112.08 421.4A220 220 0 0 1 107.9 417.95 50 50 0 0 1 172.49 341.61 120 120 0 0 0 174.77 343.49" fill="rgb(155,155,155)"/><path d="M107.9 417.95A220 220 0 0 1 103.8 414.4 50 50 0 0 1 170.26 339.67 120 120 0 0 0 172.49 341.61" fill="rgb(156,156,156)"/><path d="M103.8 414.4A220 220 0 0 1 99.8 410.74 50 50 0 0 1 168.07 337.68 120 120 0 0 0 170.26 339.67" fill="rgb(157,157,157)"/><path d="M99.8 410.74A220 220 0 0 1 95.88 406.99 50 50 0 0 1 165.93 335.63 120 120 0 0 0 168.07 337.68" fill="rgb(158,158,158)"/><path d="M95.88 406.99A220 220 0 0 1 92.06 403.15 50 50 0 0 1 163.85 333.54 120 120 0 0 0 165.93 335.63" fill="rgb(159,159,159)"/><path d="M92.06 403.15A220 220 0 0 1 88.33 399.21 50 50 0 0 1 161.82 331.39 120 120 0 0 0 163.85 333.54" fill="rgb(160,160,160)"/><path d="M88.33 399.21A220 220 0 0 1 84.71 395.18 50 50 0 0 1 159.84 329.19 120 120 0 0 0 161.82 331.39" fill="rgb(161,161,161)"/><path d="M84.71 395.18A220 220 0 0 1 81.18 391.07 50 50 0 0 1 157.92 326.95 120 120 0 0 0 159.84 329.19" fill="rgb(162,162,162)"/><path d="M81.18 391.07A220 220 0 0 1 77.76 386.86 50 50 0 0 1 156.05 324.65 120 120 0 0 0 157.92 326.95" fill="rgb(163,163,163)"/><path d="M77.76 386.86A220 220 0 0 1 74.44 382.58 50 50 0 0 1 154.24 322.32 120 120 0 0 0 156.05 324.65" fill="rgb(164,164,164)"/><path d="M74.44 382.58A220 220 0 0 1 71.22 378.21 50 50 0 0 1 152.49 319.93 120 120 0 0 0 154.24 322.32" fill="rgb(165,165,165)"/><path d="M71.22 378.21A220 220 0 0 1 68.12 373.77 50 50 0 0 1 150.79 317.51 120 120 0 0 0 152.49 319.93" fill="rgb(166,166,166)"/><path d="M68.12 373.77A220 220 0 0 1 65.12 369.25 50 50 0 0 1 149.16 315.05 120 120 0 0 0 150.79 317.51" fill="rgb(167,167,167)"/><path d="M65.12 369.25A220 220 0 0 1 62.24 364.66 50 50 0 0 1 147.59 312.54 120 120 0 0 0 149.16 315.05" fill="rgb(168,168,168)"/><path d="M62.24 364.66A220 220 0 0 1 59.47 360 50 50 0 0 1 146.08 310 120 120 0 0 0 147.59 312.54" fill="rgb(169,169,169)"/><path d="M59.47 360A220 220 0 0 1 56.82 355.27 50 50 0 0 1 144.63 307.42 120 120 0 0 0 146.08 310" fill="rgb(170,170,170)"/><path d="M56.82 355.27A220 220 0 0 1 54.29 350.48 50 50 0 0 1 143.25 304.81 120 120 0 0 0 144.63 307.42" fill="rgb(171,171,171)"/><path d="M54.29 350.48A220 220 0 0 1 51.87 345.63 50 50 0 0 1 141.93 302.16 120 120 0 0 0 143.25 304.81" fill="rgb(172,172,172)"/><path d="M51.87 345.63A220 220 0 0 1 49.58 340.72 50 50 0 0 1 140.68 299.48 120 120 0 0 0 141.93 302.16" fill="rgb(173,173,173)"/><path d="M49.58 340.72A220 220 0 0 1 47.4 335.75 50 50 0 0 1 139.49 296.77 120 120 0 0 0 140.68 299.48" fill="rgb(174,174,174)"/><path d="M47.4 335.75A220 220 0 0 1 45.35 330.74 50 50 0 0 1 138.37 294.04 120 120 0 0 0 139.49 296.77" fill="rgb(175,175,175)"/><path d="M45.35 330.74A220 220 0 0 1 43.42 325.67 50 50 0 0 1 137.32 291.27 120 120 0 0 0 138.37 294.04" fill="rgb(176,176,176)"/><path d="M43.42 325.67A220 220 0 0 1 41.62 320.56 50 50 0 0 1 136.34 288.49 120 120 0 0 0 137.32 291.27" fill="rgb(177,177,177)"/><path d="M41.62 320.56A220 220 0 0 1 39.95 315.4 50 50 0 0 1 135.43 285.67 120 120 0 0 0 136.34 288.49" fill="rgb(178,178,178)"/><path d="M39.95 315.4A220 220 0 0 1 38.4 310.21 50 50 0 0 1 134.58 282.84 120 120 0 0 0 135.43 285.67" fill="rgb(179,179,179)"/><path d="M38.4 310.21A220 220 0 0 1 36.98 304.97 50 50 0 0 1 133.81 279.99 120 120 0 0 0 134.58 282.84" fill="rgb(180,180,180)"/><path d="M36.98 304.97A220 220 0 0 1 35.69 299.71 50 50 0 0 1 133.1 277.11 120 120 0 0 0 133.81 279.99" fill="rgb(181,181,181)"/><path d="M35.69 299.71A220 220 0 0 1 34.53 294.41 50 50 0 0 1 132.47 274.23 120 120 0 0 0 133.1 277.11" fill="rgb(182,182,182)"/><path d="M34.53 294.41A220 220 0 0 1 33.5 289.09 50 50 0 0 1 131.91 271.32 120 120 0 0 0 132.47 274.23" fill="rgb(183,183,183)"/><path d="M33.5 289.09A220 220 0 0 1 32.6 283.75 50 50 0 0 1 131.42 268.41 120 120 0 0 0 131.91 271.32" fill="rgb(184,184,184)"/><path d="M32.6 283.75A220 220 0 0 1 31.84 278.38 50 50 0 0 1 131 265.48 120 120 0 0 0 131.42 268.41" fill="rgb(185,185,185)"/><path d="M31.84 278.38A220 220 0 0 1 31.21 273 50 50 0 0 1 130.66 262.54 120 120 0 0 0 131 265.48" fill="rgb(186,186,186)"/><path d="M31.21 273A220 220 0 0 1 30.71 267.6 50 50 0 0 1 130.38 259.6 120 120 0 0 0 130.66 262.54" fill="rgb(187,187,187)"/><path d="M30.71 267.6A220 220 0 0 1 30.34 262.19 50 50 0 0 1 130.18 256.65 120 120 0 0 0 130.38 259.6" fill="rgb(188,188,188)"/><path d="M30.34 262.19A220 220 0 0 1 30.1 256.77 50 50 0 0 1 130.06 253.7 120 120 0 0 0 130.18 256.65" fill="rgb(189,189,189)"/><path d="M30.1 256.77A220 220 0 0 1 30 251.36 50 50 0 0 1 130 250.74 120 120 0 0 0 130.06 253.7" fill="rgb(190,190,190)"/><path d="M30 251.36A220 220 0 0 1 30.04 245.93 50 50 0 0 1 130.02 247.78 120 120 0 0 0 130 250.74" fill="rgb(191,191,191)"/><path d="M30.04 245.93A220 220 0 0 1 30.2 240.52 50 50 0 0 1 130.11 244.83 120 120 0 0 0 130.02 247.78" fill="rgb(192,192,192)"/><path d="M30.2 240.52A220 220 0 0 1 30.5 235.1 50 50 0 0 1 130.28 241.88 120 120 0 0 0 130.11 244.83" fill="rgb(193,193,193)"/><path d="M30.5 235.1A220 220 0 0 1 30.94 229.7 50 50 0 0 1 130.51 238.93 120 120 0 0 0 130.28 241.88" fill="rgb(194,194,194)"/><path d="M30.94 229.7A220 220 0 0 1 31.51 224.31 50 50 0 0 1 130.82 235.99 120 120 0 0 0 130.51 238.93" fill="rgb(195,195,195)"/><path d="M31.51 224.31A220 220 0 0 1 32.2 218.93 50 50 0 0 1 131.2 233.06 120 120 0 0 0 130.82 235.99" fill="rgb(196,196,196)"/><path d="M32.2 218.93A220 220 0 0 1 33.04 213.58 50 50 0 0 1 131.66 230.13 120 120 0 0 0 131.2 233.06" fill="rgb(197,197,197)"/><path d="M33.04 213.58A220 220 0 0 1 34 208.24 50 50 0 0 1 132.18 227.22 120 120 0 0 0 131.66 230.13" fill="rgb(198,198,198)"/><path d="M34 208.24A220 220 0 0 1 35.09 202.93 50 50 0 0 1 132.78 224.33 120 120 0 0 0 132.18 227.22" fill="rgb(199,199,199)"/><path d="M35.09 202.93A220 220 0 0 1 36.32 197.65 50 50 0 0 1 133.45 221.45 120 120 0 0 0 132.78 224.33" fill="rgb(200,200,200)"/><path d="M36.32 197.65A220 220 0 0 1 37.67 192.41 50 50 0 0 1 134.19 218.58 120 120 0 0 0 133.45 221.45" fill="rgb(201,201,201)"/><path d="M37.67 192.41A220 220 0 0 1 39.16 187.19 50 50 0 0 1 134.99 215.74 120 120 0 0 0 134.19 218.58" fill="rgb(202,202,202)"/><path d="M39.16 187.19A220 220 0 0 1 40.77 182.02 50 50 0 0 1 135.87 212.92 120 120 0 0 0 134.99 215.74" fill="rgb(203,203,203)"/><path d="M40.77 182.02A220 220 0 0 1 42.51 176.88 50 50 0 0 1 136.82 210.12 120 120 0 0 0 135.87 212.92" fill="rgb(204,204,204)"/><path d="M42.51 176.88A220 220 0 0 1 44.37 171.79 50 50 0 0 1 137.84 207.34 120 120 0 0 0 136.82 210.12" fill="rgb(205,205,205)"/><path d="M44.37 171.79A220 220 0 0 1 46.36 166.75 50 50 0 0 1 138.92 204.59 120 120 0 0 0 137.84 207.34" fill="rgb(206,206,206)"/><path d="M46.36 166.75A220 220 0 0 1 48.47 161.76 50 50 0 0 1 140.08 201.87 120 120 0 0 0 138.92 204.59" fill="rgb(207,207,207)"/><path d="M48.47 161.76A220 220 0 0 1 50.71 156.82 50 50 0 0 1 141.3 199.17 120 120 0 0 0 140.08 201.87" fill="rgb(208,208,208)"/><path d="M50.71 156.82A220 220 0 0 1 53.06 151.94 50 50 0 0 1 142.58 196.51 120 120 0 0 0 141.3 199.17" fill="rgb(209,209,209)"/><path d="M53.06 151.94A220 220 0 0 1 55.54 147.12 50 50 0 0 1 143.93 193.88 120 120 0 0 0 142.58 196.51" fill="rgb(210,210,210)"/><path d="M55.54 147.12A220 220 0 0 1 58.13 142.36 50 50 0 0 1 145.35 191.28 120 120 0 0 0 143.93 193.88" fill="rgb(211,211,211)"/><path d="M58.13 142.36A220 220 0 0 1 60.84 137.66 50 50 0 0 1 146.82 188.72 120 120 0 0 0 145.35 191.28" fill="rgb(212,212,212)"/><path d="M60.84 137.66A220 220 0 0 1 63.67 133.03 50 50 0 0 1 148.37 186.2 120 120 0 0 0 146.82 188.72" fill="rgb(213,213,213)"/><path d="M63.67 133.03A220 220 0 0 1 66.61 128.48 50 50 0 0 1 149.97 183.72 120 120 0 0 0 148.37 186.2" fill="rgb(214,214,214)"/><path d="M66.61 128.48A220 220 0 0 1 69.66 124 50 50 0 0 1 151.63 181.27 120 120 0 0 0 149.97 183.72" fill="rgb(215,215,215)"/><path d="M69.66 124A220 220 0 0 1 72.82 119.59 50 50 0 0 1 153.35 178.87 120 120 0 0 0 151.63 181.27" fill="rgb(216,216,216)"/><path d="M72.82 119.59A220 220 0 0 1 76.08 115.27 50 50 0 0 1 155.14 176.51 120 120 0 0 0 153.35 178.87" fill="rgb(217,217,217)"/><path d="M76.08 115.27A220 220 0 0 1 79.46 111.02 50 50 0 0 1 156.98 174.19 120 120 0 0 0 155.14 176.51" fill="rgb(218,218,218)"/><path d="M79.46 111.02A220 220 0 0 1 82.93 106.86 50 50 0 0 1 158.87 171.93 120 120 0 0 0 156.98 174.19" fill="rgb(219,219,219)"/><path d="M82.93 106.86A220 220 0 0 1 86.51 102.79 50 50 0 0 1 160.82 169.7 120 120 0 0 0 158.87 171.93" fill="rgb(220,220,220)"/><path d="M86.51 102.79A220 220 0 0 1 90.18 98.81 50 50 0 0 1 162.83 167.53 120 120 0 0 0 160.82 169.7" fill="rgb(221,221,221)"/><path d="M90.18 98.81A220 220 0 0 1 93.96 94.92 50 50 0 0 1 164.89 165.41 120 120 0 0 0 162.83 167.53" fill="rgb(222,222,222)"/><path d="M93.96 94.92A220 220 0 0 1 97.83 91.12 50 50 0 0 1 167 163.34 120 120 0 0 0 164.89 165.41" fill="rgb(223,223,223)"/><path d="M97.83 91.12A220 220 0 0 1 101.79 87.42 50 50 0 0 1 169.16 161.32 120 120 0 0 0 167 163.34" fill="rgb(224,224,224)"/><path d="M101.79 87.42A220 220 0 0 1 105.84 83.82 50 50 0 0 1 171.37 159.35 120 120 0 0 0 169.16 161.32" fill="rgb(225,225,225)"/><path d="M105.84 83.82A220 220 0 0 1 109.98 80.31 50 50 0 0 1 173.62 157.44 120 120 0 0 0 171.37 159.35" fill="rgb(226,226,226)"/><path d="M109.98 80.31A220 220 0 0 1 114.2 76.92 50 50 0 0 1 175.93 155.59 120 120 0 0 0 173.62 157.44" fill="rgb(227,227,227)"/><path d="M114.2 76.92A220 220 0 0 1 118.5 73.62 50 50 0 0 1 178.28 153.79 120 120 0 0 0 175.93 155.59" fill="rgb(228,228,228)"/><path d="M118.5 73.62A220 220 0 0 1 122.89 70.44 50 50 0 0 1 180.67 152.06 120 120 0 0 0 178.28 153.79" fill="rgb(229,229,229)"/><path d="M122.89 70.44A220 220 0 0 1 127.35 67.36 50 50 0 0 1 183.1 150.38 120 120 0 0 0 180.67 152.06" fill="rgb(230,230,230)"/><path d="M127.35 67.36A220 220 0 0 1 131.89 64.39 50 50 0 0 1 185.58 148.76 120 120 0 0 0 183.1 150.38" fill="rgb(231,231,231)"/><path d="M131.89 64.39A220 220 0 0 1 136.5 61.54 50 50 0 0 1 188.09 147.2 120 120 0 0 0 185.58 148.76" fill="rgb(232,232,232)"/><path d="M136.5 61.54A220 220 0 0 1 141.18 58.8 50 50 0 0 1 190.64 145.71 120 120 0 0 0 188.09 147.2" fill="rgb(233,233,233)"/><path d="M141.18 58.8A220 220 0 0 1 145.92 56.18 50 50 0 0 1 193.23 144.28 120 120 0 0 0 190.64 145.71" fill="rgb(234,234,234)"/><path d="M145.92 56.18A220 220 0 0 1 150.73 53.67 50 50 0 0 1 195.85 142.91 120 120 0 0 0 193.23 144.28" fill="rgb(235,235,235)"/><path d="M150.73 53.67A220 220 0 0 1 155.59 51.29 50 50 0 0 1 198.51 141.61 120 120 0 0 0 195.85 142.91" fill="rgb(236,236,236)"/><path d="M155.59 51.29A220 220 0 0 1 160.52 49.02 50 50 0 0 1 201.19 140.37 120 120 0 0 0 198.51 141.61" fill="rgb(237,237,237)"/><path d="M160.52 49.02A220 220 0 0 1 165.5 46.88 50 50 0 0 1 203.91 139.21 120 120 0 0 0 201.19 140.37" fill="rgb(238,238,238)"/><path d="M165.5 46.88A220 220 0 0 1 170.53 44.86 50 50 0 0 1 206.65 138.1 120 120 0 0 0 203.91 139.21" fill="rgb(239,239,239)"/><path d="M170.53 44.86A220 220 0 0 1 175.61 42.96 50 50 0 0 1 209.42 137.07 120 120 0 0 0 206.65 138.1" fill="rgb(240,240,240)"/><path d="M175.61 42.96A220 220 0 0 1 180.73 41.19 50 50 0 0 1 212.22 136.1 120 120 0 0 0 209.42 137.07" fill="rgb(241,241,241)"/><path d="M180.73 41.19A220 220 0 0 1 185.89 39.55 50 50 0 0 1 215.03 135.21 120 120 0 0 0 212.22 136.1" fill="rgb(242,242,242)"/><path d="M185.89 39.55A220 220 0 0 1 191.1 38.03 50 50 0 0 1 217.87 134.38 120 120 0 0 0 215.03 135.21" fill="rgb(243,243,243)"/><path d="M191.1 38.03A220 220 0 0 1 196.34 36.64 50 50 0 0 1 220.73 133.62 120 120 0 0 0 217.87 134.38" fill="rgb(244,244,244)"/><path d="M196.34 36.64A220 220 0 0 1 201.61 35.39 50 50 0 0 1 223.61 132.94 120 120 0 0 0 220.73 133.62" fill="rgb(245,245,245)"/><path d="M201.61 35.39A220 220 0 0 1 206.91 34.26 50 50 0 0 1 226.5 132.32 120 120 0 0 0 223.61 132.94" fill="rgb(246,246,246)"/><path d="M206.91 34.26A220 220 0 0 1 212.24 33.26 50 50 0 0 1 229.4 131.78 120 120 0 0 0 226.5 132.32" fill="rgb(247,247,247)"/><path d="M212.24 33.26A220 220 0 0 1 217.59 32.4 50 50 0 0 1 232.32 131.31 120 120 0 0 0 229.4 131.78" fill="rgb(248,248,248)"/><path d="M217.59 32.4A220 220 0 0 1 222.96 31.67 50 50 0 0 1 235.25 130.91 120 120 0 0 0 232.32 131.31" fill="rgb(249,249,249)"/><path d="M222.96 31.67A220 220 0 0 1 228.35 31.07 50 50 0 0 1 238.19 130.58 120 120 0 0 0 235.25 130.91" fill="rgb(250,250,250)"/><path d="M228.35 31.07A220 220 0 0 1 233.75 30.6 50 50 0 0 1 241.14 130.33 120 120 0 0 0 238.19 130.58" fill="rgb(251,251,251)"/><path d="M233.75 30.6A220 220 0 0 1 239.16 30.27 50 50 0 0 1 244.09 130.15 120 120 0 0 0 241.14 130.33" fill="rgb(252,252,252)"/><path d="M239.16 30.27A220 220 0 0 1 244.58 30.07 50 50 0 0 1 247.04 130.04 120 120 0 0 0 244.09 130.15" fill="rgb(253,253,253)"/><path d="M244.58 30.07A220 220 0 0 1 250 30 50 50 0 0 1 250 130 120 120 0 0 0 247.04 130.04" fill="rgb(254,254,254)"/><animateTransform attributeName="transform" attributeType="XML" type="rotate" dur="0.6s" repeatCount="indefinite" from="0 32 32" to="360 32 32"/></svg>