<?xml version="1.0" encoding="utf-8"?>
<!-- Generator: Adobe Illustrator 17.1.0, SVG Export Plug-In . SVG Version: 6.00 Build 0)  -->
<!DOCTYPE svg PUBLIC "-//W3C//DTD SVG 1.1//EN" "http://www.w3.org/Graphics/SVG/1.1/DTD/svg11.dtd">
<svg version="1.1" id="Layer_1" xmlns="http://www.w3.org/2000/svg" xmlns:xlink="http://www.w3.org/1999/xlink" x="0px" y="0px"
	 viewBox="0 0 1280 800" enable-background="new 0 0 1280 800" xml:space="preserve">
<g>
	<g>
		<path fill="#0011BB" d="M506.7,711.1c-160,0-288.9-128.9-288.9-288.9s128.9-288.9,288.9-288.9h266.7
			c160,0,288.9,128.9,288.9,288.9S933.3,711.1,773.3,711.1H506.7z"/>
		<path fill="#000E99" d="M773.3,133.3c146.7,0,266.7,120,266.7,266.7S920,666.7,773.3,666.7H506.7C360,666.7,240,546.7,240,400
			s120-266.7,266.7-266.7H773.3 M773.3,88.9H506.7c-168.9,0-311.1,142.2-311.1,311.1s137.8,311.1,311.1,311.1h266.7
			c173.3,0,311.1-137.8,311.1-311.1S942.2,88.9,773.3,88.9L773.3,88.9z"/>
		<path fill="#FFFFFF" d="M773.3,88.9c173.3,0,311.1,142.2,311.1,311.1S942.2,711.1,773.3,711.1H506.7
			c-173.3,0-311.1-137.8-311.1-311.1S333.3,88.9,506.7,88.9H773.3 M773.3,44.4H506.7c-195.6,0-355.6,160-355.6,355.6
			s160,355.6,355.6,355.6h266.7c195.6,0,355.6-160,355.6-355.6S968.9,44.4,773.3,44.4L773.3,44.4z"/>
		<path fill="#383836" d="M773.3,44.4c195.6,0,355.6,160,355.6,355.6s-160,355.6-355.6,355.6H506.7c-195.6,0-355.6-160-355.6-355.6
			s160-355.6,355.6-355.6H773.3 M773.3,0H506.7c-222.2,0-400,177.8-400,400s177.8,400,400,400h266.7c222.2,0,400-177.8,400-400
			S995.6,0,773.3,0L773.3,0z"/>
	</g>
	<g>
		<g>
			<path fill="#FFFFFF" d="M444.4,542.2h-62.2V311.1c-17.8,22.2-44.4,35.6-75.6,44.4v-53.3c17.8-4.4,31.1-13.3,53.3-31.1
				s31.1-31.1,35.6-48.9h48.9V542.2z"/>
			<path fill="#FFFFFF" d="M742.2,484.4v57.8H528.9c4.4-22.2,8.9-40,22.2-62.2c13.3-17.8,35.6-44.4,66.7-75.6
				c26.7-26.7,44.4-44.4,48.9-53.3c8.9-13.3,13.3-26.7,13.3-35.6c0-13.3-4.4-22.2-8.9-31.1c-8.9-8.9-17.8-8.9-31.1-8.9
				c-13.3,0-22.2,4.4-31.1,13.3c-8.9,0-13.3,13.3-13.3,31.1l-62.2-4.4c4.4-35.6,13.3-57.8,35.6-71.1c22.2-13.3,44.4-22.2,71.1-22.2
				c31.1,0,57.8,8.9,75.6,26.7s26.7,40,26.7,62.2c0,13.3-4.4,26.7-8.9,40c-4.4,13.3-13.3,26.7-22.2,40c-8.9,8.9-22.2,22.2-40,40
				s-31.1,31.1-35.6,35.6s-8.9,13.3-13.3,17.8H742.2z"/>
			<path fill="#FFFFFF" d="M884.4,222.2c31.1,0,53.3,8.9,71.1,31.1c22.2,26.7,31.1,71.1,31.1,128.9c0,62.2-8.9,102.2-31.1,128.9
				c-17.8,22.2-40,31.1-71.1,31.1s-53.3-13.3-75.6-35.6c-17.8-22.2-26.7-66.7-26.7-128.9c0-57.8,8.9-102.2,31.1-128.9
				C831.1,231.1,853.3,222.2,884.4,222.2z M884.4,271.1c-8.9,0-13.3,4.4-17.8,8.9c-4.4,4.4-8.9,13.3-13.3,26.7
				c-4.4,17.8-4.4,44.4-4.4,80s0,62.2,4.4,75.6s8.9,22.2,13.3,26.7c4.4,4.4,13.3,8.9,17.8,8.9s13.3-4.4,17.8-8.9
				c4.4-4.4,8.9-13.3,13.3-26.7c4.4-17.8,4.4-40,4.4-80s0-62.2-4.4-75.6c-4.4-13.3-8.9-22.2-13.3-26.7
				C897.8,275.6,888.9,271.1,884.4,271.1z"/>
		</g>
	</g>
</g>
</svg>
