<?xml version="1.0" encoding="utf-8"?>
<!-- Generator: Adobe Illustrator 17.1.0, SVG Export Plug-In . SVG Version: 6.00 Build 0)  -->
<!DOCTYPE svg PUBLIC "-//W3C//DTD SVG 1.1//EN" "http://www.w3.org/Graphics/SVG/1.1/DTD/svg11.dtd">
<svg version="1.1" id="Layer_1" xmlns="http://www.w3.org/2000/svg" xmlns:xlink="http://www.w3.org/1999/xlink" x="0px" y="0px"
	 width="22px" height="18px" viewBox="0 0 24 18" style="enable-background:new 0 0 24 18;" xml:space="preserve">
<style type="text/css">
	.st0{fill:#0011BB;}
	.st1{fill:#FFFFFF;}
	.st2{fill:#383836;}
	.st3{fill:#000E99;}
</style>
<g>
	<g>
		<g>
			<path class="st0" d="M9,17c-4.1,0-7.5-3.4-7.5-7.5S4.9,2,9,2h6c4.1,0,7.5,3.4,7.5,7.5S19.1,17,15,17H9z"/>
			<path class="st1" d="M15,2c3.9,0,7,3.2,7,7s-3.1,7-7,7H9c-3.8,0-7-3.1-7-7s3.2-7,7-7H15 M15,1H9C4.6,1,1,4.6,1,9s3.6,8,8,8h6
				c4.4,0,8-3.6,8-8S19.4,1,15,1L15,1z"/>
		</g>
		<path class="st2" d="M15,1c4.4,0,8,3.6,8,8s-3.6,8-8,8H9c-4.4,0-8-3.6-8-8s3.6-8,8-8H15 M15,0H9C4,0,0,4,0,9s4,9,9,9h6
			c5,0,9-4,9-9S20,0,15,0L15,0z"/>
		<path class="st3" d="M15,3c3.3,0,6,2.7,6,6s-2.7,6-6,6H9c-3.3,0-6-2.7-6-6s2.7-6,6-6H15 M15,2H9C5.2,2,2,5.2,2,9s3.2,7,7,7h6
			c3.9,0,7-3.1,7-7S18.9,2,15,2L15,2z"/>
	</g>
	<g>
		<g>
			<path class="st1" d="M7.8,12.1H6.5V7C6,7.5,5.4,7.8,4.7,8V6.8c0.4-0.1,0.7-0.3,1.2-0.7S6.6,5.4,6.7,5h1.1V12.1z"/>
			<path class="st1" d="M14.1,10.9v1.3H9.3c0.1-0.5,0.2-0.9,0.5-1.4s0.8-1,1.5-1.7c0.6-0.6,1-1,1.1-1.2c0.2-0.3,0.3-0.6,0.3-0.8
				c0-0.3-0.1-0.5-0.2-0.7c-0.2-0.2-0.4-0.2-0.7-0.2c-0.3,0-0.5,0.1-0.7,0.3c-0.2,0.2-0.3,0.5-0.3,0.9L9.4,7.1
				c0.1-0.8,0.3-1.3,0.8-1.6s1-0.5,1.6-0.5c0.7,0,1.3,0.2,1.7,0.6s0.6,0.8,0.6,1.4c0,0.3-0.1,0.6-0.2,0.9c-0.1,0.3-0.3,0.6-0.5,0.9
				c-0.2,0.2-0.5,0.5-0.9,0.9c-0.4,0.4-0.7,0.7-0.8,0.8c-0.1,0.1-0.2,0.3-0.3,0.4H14.1z"/>
			<path class="st1" d="M17.3,5c0.7,0,1.2,0.2,1.6,0.7c0.5,0.6,0.7,1.5,0.7,2.9c0,1.3-0.2,2.3-0.7,2.9c-0.4,0.5-0.9,0.7-1.6,0.7
				c-0.7,0-1.3-0.3-1.7-0.8S15,10,15,8.6c0-1.3,0.2-2.3,0.7-2.9C16.1,5.2,16.6,5,17.3,5z M17.3,6.1c-0.2,0-0.3,0.1-0.4,0.2
				c-0.1,0.1-0.2,0.3-0.3,0.6c-0.1,0.4-0.1,0.9-0.1,1.8s0,1.4,0.1,1.7c0.1,0.3,0.2,0.5,0.3,0.6c0.1,0.1,0.3,0.2,0.4,0.2
				c0.2,0,0.3-0.1,0.4-0.2c0.1-0.1,0.2-0.3,0.3-0.6c0.1-0.3,0.1-0.9,0.1-1.8s0-1.4-0.1-1.7s-0.2-0.5-0.3-0.6S17.5,6.1,17.3,6.1z"/>
		</g>
	</g>
</g>
<g>
</g>
<g>
</g>
<g>
</g>
<g>
</g>
<g>
</g>
<g>
</g>
<g>
</g>
<g>
</g>
<g>
</g>
<g>
</g>
<g>
</g>
<g>
</g>
<g>
</g>
<g>
</g>
<g>
</g>
</svg>
