<?xml version="1.0" encoding="utf-8"?>
<!-- Generator: Adobe Illustrator 17.1.0, SVG Export Plug-In . SVG Version: 6.00 Build 0)  -->
<!DOCTYPE svg PUBLIC "-//W3C//DTD SVG 1.1//EN" "http://www.w3.org/Graphics/SVG/1.1/DTD/svg11.dtd">
<svg version="1.1" id="Layer_1" xmlns="http://www.w3.org/2000/svg" xmlns:xlink="http://www.w3.org/1999/xlink" x="0px" y="0px"
	 viewBox="0 0 24 18" enable-background="new 0 0 24 18" xml:space="preserve">
<g>
	<g>
		<path fill="#FF0000" d="M9,16c-3.6,0-6.5-2.9-6.5-6.5S5.4,3,9,3h6c3.6,0,6.5,2.9,6.5,6.5S18.6,16,15,16H9z"/>
		<path fill="#EE0000" d="M15,3c3.3,0,6,2.7,6,6s-2.7,6-6,6H9c-3.3,0-6-2.7-6-6s2.7-6,6-6H15 M15,2H9C5.2,2,2,5.2,2,9s3.1,7,7,7h6
			c3.9,0,7-3.1,7-7S18.8,2,15,2L15,2z"/>
		<path fill="#FFFFFF" d="M15,2c3.9,0,7,3.2,7,7s-3.2,7-7,7H9c-3.9,0-7-3.1-7-7s3.1-7,7-7H15 M15,1H9C4.6,1,1,4.6,1,9s3.6,8,8,8h6
			c4.4,0,8-3.6,8-8S19.4,1,15,1L15,1z"/>
		<path fill="#383836" d="M15,1c4.4,0,8,3.6,8,8s-3.6,8-8,8H9c-4.4,0-8-3.6-8-8s3.6-8,8-8H15 M15,0H9C4,0,0,4,0,9s4,9,9,9h6
			c5,0,9-4,9-9S20,0,15,0L15,0z"/>
	</g>
	<g>
		<g>
			<path fill="#FFFFFF" d="M7.6,12.2H6.2V7C5.8,7.5,5.2,7.8,4.5,8V6.8c0.4-0.1,0.7-0.3,1.2-0.7S6.4,5.4,6.5,5h1.1V12.2z"/>
			<path fill="#FFFFFF" d="M14.3,10.9v1.3H9.5c0.1-0.5,0.2-0.9,0.5-1.4c0.3-0.4,0.8-1,1.5-1.7c0.6-0.6,1-1,1.1-1.2
				c0.2-0.3,0.3-0.6,0.3-0.8c0-0.3-0.1-0.5-0.2-0.7c-0.2-0.2-0.4-0.2-0.7-0.2c-0.3,0-0.5,0.1-0.7,0.3C11.1,6.5,11,6.8,11,7.2
				L9.6,7.1c0.1-0.8,0.3-1.3,0.8-1.6S11.4,5,12,5c0.7,0,1.3,0.2,1.7,0.6s0.6,0.9,0.6,1.4c0,0.3-0.1,0.6-0.2,0.9
				c-0.1,0.3-0.3,0.6-0.5,0.9c-0.2,0.2-0.5,0.5-0.9,0.9c-0.4,0.4-0.7,0.7-0.8,0.8s-0.2,0.3-0.3,0.4H14.3z"/>
			<path fill="#FFFFFF" d="M17.5,5c0.7,0,1.2,0.2,1.6,0.7c0.5,0.6,0.7,1.6,0.7,2.9c0,1.4-0.2,2.3-0.7,2.9c-0.4,0.5-0.9,0.7-1.6,0.7
				c-0.7,0-1.2-0.3-1.7-0.8c-0.4-0.5-0.6-1.5-0.6-2.9c0-1.3,0.2-2.3,0.7-2.9C16.3,5.2,16.8,5,17.5,5z M17.5,6.1
				c-0.2,0-0.3,0.1-0.4,0.2c-0.1,0.1-0.2,0.3-0.3,0.6c-0.1,0.4-0.1,1-0.1,1.8s0,1.4,0.1,1.7c0.1,0.3,0.2,0.5,0.3,0.6
				c0.1,0.1,0.3,0.2,0.4,0.2s0.3-0.1,0.4-0.2c0.1-0.1,0.2-0.3,0.3-0.6c0.1-0.4,0.1-0.9,0.1-1.8s0-1.4-0.1-1.7S18,6.4,17.9,6.3
				C17.8,6.2,17.6,6.1,17.5,6.1z"/>
		</g>
	</g>
</g>
</svg>
