<?xml version="1.0" encoding="utf-8"?>
<!-- Generator: Adobe Illustrator 17.1.0, SVG Export Plug-In . SVG Version: 6.00 Build 0)  -->
<!DOCTYPE svg PUBLIC "-//W3C//DTD SVG 1.1//EN" "http://www.w3.org/Graphics/SVG/1.1/DTD/svg11.dtd">
<svg version="1.1" id="Layer_1" xmlns="http://www.w3.org/2000/svg" xmlns:xlink="http://www.w3.org/1999/xlink" x="0px" y="0px"
	 viewBox="0 0 24 24" enable-background="new 0 0 24 24" xml:space="preserve">
<g>
	<g>
		<path fill="#0011BB" d="M9,19c-3.6,0-6.5-2.9-6.5-6.5S5.4,6,9,6h6c3.6,0,6.5,2.9,6.5,6.5S18.6,19,15,19H9z"/>
		<path fill="#000E99" d="M15,6c3.3,0,6,2.7,6,6s-2.7,6-6,6H9c-3.3,0-6-2.7-6-6s2.7-6,6-6L15,6 M15,5H9c-3.8,0-7,3.2-7,7s3.1,7,7,7
			h6c3.9,0,7-3.1,7-7S18.8,5,15,5L15,5z"/>
		<path fill="#FFFFFF" d="M15,5c3.9,0,7,3.2,7,7s-3.2,7-7,7H9c-3.9,0-7-3.1-7-7s3.1-7,7-7H15 M15,4H9c-4.4,0-8,3.6-8,8s3.6,8,8,8h6
			c4.4,0,8-3.6,8-8S19.4,4,15,4L15,4z"/>
		<path fill="#383836" d="M15,4c4.4,0,8,3.6,8,8s-3.6,8-8,8H9c-4.4,0-8-3.6-8-8s3.6-8,8-8L15,4 M15,3H9c-5,0-9,4-9,9s4,9,9,9h6
			c5,0,9-4,9-9S20,3,15,3L15,3z"/>
	</g>
	<g>
		<g>
			<path fill="#FFFFFF" d="M7.6,15.2H6.2V10c-0.4,0.5-1,0.8-1.7,1V9.8c0.4-0.1,0.7-0.3,1.2-0.7C6.2,8.7,6.4,8.4,6.5,8h1.1
				C7.6,8,7.6,15.2,7.6,15.2z"/>
			<path fill="#FFFFFF" d="M14.3,13.9v1.3H9.5c0.1-0.5,0.2-0.9,0.5-1.4c0.3-0.4,0.8-1,1.5-1.7c0.6-0.6,1-1,1.1-1.2
				c0.2-0.3,0.3-0.6,0.3-0.8c0-0.3-0.1-0.5-0.2-0.7c-0.2-0.2-0.4-0.2-0.7-0.2c-0.3,0-0.5,0.1-0.7,0.3c-0.2,0-0.3,0.3-0.3,0.7
				l-1.4-0.1c0.1-0.8,0.3-1.3,0.8-1.6C10.9,8.2,11.4,8,12,8c0.7,0,1.3,0.2,1.7,0.6c0.4,0.4,0.6,0.9,0.6,1.4c0,0.3-0.1,0.6-0.2,0.9
				c-0.1,0.3-0.3,0.6-0.5,0.9c-0.2,0.2-0.5,0.5-0.9,0.9s-0.7,0.7-0.8,0.8c-0.1,0.1-0.2,0.3-0.3,0.4L14.3,13.9L14.3,13.9z"/>
			<path fill="#FFFFFF" d="M17.5,8c0.7,0,1.2,0.2,1.6,0.7c0.5,0.6,0.7,1.6,0.7,2.9c0,1.4-0.2,2.3-0.7,2.9c-0.4,0.5-0.9,0.7-1.6,0.7
				s-1.2-0.3-1.7-0.8c-0.4-0.5-0.6-1.5-0.6-2.9c0-1.3,0.2-2.3,0.7-2.9C16.3,8.2,16.8,8,17.5,8z M17.5,9.1c-0.2,0-0.3,0.1-0.4,0.2
				c-0.1,0.1-0.2,0.3-0.3,0.6c-0.1,0.4-0.1,1-0.1,1.8c0,0.8,0,1.4,0.1,1.7c0.1,0.3,0.2,0.5,0.3,0.6c0.1,0.1,0.3,0.2,0.4,0.2
				c0.1,0,0.3-0.1,0.4-0.2c0.1-0.1,0.2-0.3,0.3-0.6c0.1-0.4,0.1-0.9,0.1-1.8c0-0.9,0-1.4-0.1-1.7c-0.1-0.3-0.2-0.5-0.3-0.6
				C17.8,9.2,17.6,9.1,17.5,9.1z"/>
		</g>
	</g>
</g>
</svg>
