<?xml version="1.0" encoding="utf-8"?>
<!-- Generator: Adobe Illustrator 17.1.0, SVG Export Plug-In . SVG Version: 6.00 Build 0)  -->
<!DOCTYPE svg PUBLIC "-//W3C//DTD SVG 1.1//EN" "http://www.w3.org/Graphics/SVG/1.1/DTD/svg11.dtd">
<svg version="1.1" id="Layer_1" xmlns="http://www.w3.org/2000/svg" xmlns:xlink="http://www.w3.org/1999/xlink" x="0px" y="0px"
	 width="22px" height="18px" viewBox="0 0 24 18" style="enable-background:new 0 0 24 18;" xml:space="preserve">
<style type="text/css">
	.st0{fill:#00CCDD;}
	.st1{fill:#FFFFFF;}
	.st2{fill:#383836;}
	.st3{fill:#00ADBB;}
</style>
<g>
	<g>
		<g>
			<g>
				<path class="st0" d="M9,17c-4.1,0-7.5-3.4-7.5-7.5S4.9,2,9,2h6c4.1,0,7.5,3.4,7.5,7.5S19.1,17,15,17H9z"/>
				<path class="st1" d="M15,2c3.9,0,7,3.2,7,7s-3.1,7-7,7H9c-3.8,0-7-3.1-7-7s3.2-7,7-7H15 M15,1H9C4.6,1,1,4.6,1,9s3.6,8,8,8h6
					c4.4,0,8-3.6,8-8S19.4,1,15,1L15,1z"/>
			</g>
			<path class="st2" d="M15,1c4.4,0,8,3.6,8,8s-3.6,8-8,8H9c-4.4,0-8-3.6-8-8s3.6-8,8-8H15 M15,0H9C4,0,0,4,0,9s4,9,9,9h6
				c5,0,9-4,9-9S20,0,15,0L15,0z"/>
		</g>
		<path class="st3" d="M15,3c3.3,0,6,2.7,6,6s-2.7,6-6,6H9c-3.3,0-6-2.7-6-6s2.7-6,6-6H15 M15,2H9C5.2,2,2,5.2,2,9s3.2,7,7,7h6
			c3.9,0,7-3.1,7-7S18.9,2,15,2L15,2z"/>
	</g>
	<g>
		<g>
			<path class="st1" d="M6.9,6.4V5.1h4.7v1c-0.4,0.4-0.8,0.9-1.2,1.6S9.7,9.2,9.5,10c-0.2,0.8-0.3,1.5-0.3,2.1H7.9c0-1,0.2-2,0.6-3
				c0.4-1,0.9-1.9,1.5-2.7H6.9z"/>
			<path class="st1" d="M14.7,5c0.7,0,1.2,0.2,1.6,0.7C16.8,6.3,17,7.3,17,8.6c0,1.3-0.2,2.3-0.7,2.9c-0.4,0.5-0.9,0.7-1.6,0.7
				c-0.7,0-1.3-0.3-1.7-0.8c-0.4-0.5-0.6-1.5-0.6-2.8c0-1.3,0.2-2.3,0.7-2.9C13.5,5.2,14,5,14.7,5z M14.7,6.1
				c-0.2,0-0.3,0.1-0.4,0.2c-0.1,0.1-0.2,0.3-0.3,0.6c-0.1,0.4-0.1,0.9-0.1,1.8s0,1.4,0.1,1.7c0.1,0.3,0.2,0.5,0.3,0.6
				c0.1,0.1,0.3,0.2,0.4,0.2c0.2,0,0.3-0.1,0.4-0.2c0.1-0.1,0.2-0.3,0.3-0.6c0.1-0.3,0.1-0.9,0.1-1.8s0-1.4-0.1-1.7
				s-0.2-0.5-0.3-0.6S14.9,6.1,14.7,6.1z"/>
		</g>
	</g>
</g>
<g>
</g>
<g>
</g>
<g>
</g>
<g>
</g>
<g>
</g>
<g>
</g>
<g>
</g>
<g>
</g>
<g>
</g>
<g>
</g>
<g>
</g>
<g>
</g>
<g>
</g>
<g>
</g>
<g>
</g>
</svg>
