<?xml version="1.0" encoding="utf-8"?>
<!-- Generator: Adobe Illustrator 17.1.0, SVG Export Plug-In . SVG Version: 6.00 Build 0)  -->
<!DOCTYPE svg PUBLIC "-//W3C//DTD SVG 1.1//EN" "http://www.w3.org/Graphics/SVG/1.1/DTD/svg11.dtd">
<svg version="1.1" id="Layer_1" xmlns="http://www.w3.org/2000/svg" xmlns:xlink="http://www.w3.org/1999/xlink" x="0px" y="0px"
	 viewBox="0 0 24 24" enable-background="new 0 0 24 24" xml:space="preserve">
<g>
	<g>
		<path fill="#FF0000" d="M9,19c-3.6,0-6.5-2.9-6.5-6.5S5.4,6,9,6h6c3.6,0,6.5,2.9,6.5,6.5S18.6,19,15,19H9z"/>
		<path fill="#EE0000" d="M15,6c3.3,0,6,2.7,6,6s-2.7,6-6,6H9c-3.3,0-6-2.7-6-6s2.7-6,6-6L15,6 M15,5H9c-3.8,0-7,3.2-7,7s3.1,7,7,7
			h6c3.9,0,7-3.1,7-7S18.8,5,15,5L15,5z"/>
		<path fill="#FFFFFF" d="M15,5c3.9,0,7,3.2,7,7s-3.2,7-7,7H9c-3.9,0-7-3.1-7-7s3.1-7,7-7H15 M15,4H9c-4.4,0-8,3.6-8,8s3.6,8,8,8h6
			c4.4,0,8-3.6,8-8S19.4,4,15,4L15,4z"/>
		<path fill="#383836" d="M15,4c4.4,0,8,3.6,8,8s-3.6,8-8,8H9c-4.4,0-8-3.6-8-8s3.6-8,8-8L15,4 M15,3H9c-5,0-9,4-9,9s4,9,9,9h6
			c5,0,9-4,9-9S20,3,15,3L15,3z"/>
	</g>
	<g>
		<g>
			<path fill="#FFFFFF" d="M8.1,11.3c-0.4-0.2-0.7-0.4-0.8-0.6C7.1,10.4,7,10.1,7,9.8c0-0.5,0.2-1,0.6-1.3C8,8.2,8.5,8,9.2,8
				c0.7,0,1.2,0.2,1.6,0.5c0.4,0.3,0.6,0.8,0.6,1.3c0,0.3-0.1,0.6-0.3,0.9c-0.2,0.3-0.4,0.5-0.7,0.6c0.3,0.2,0.6,0.4,0.8,0.7
				c0.2,0.3,0.3,0.7,0.3,1.1c0,0.7-0.2,1.2-0.6,1.6c-0.4,0.4-1,0.6-1.7,0.6c-0.6,0-1.2-0.2-1.6-0.5c-0.5-0.4-0.8-1-0.8-1.7
				C6.9,12.7,7,12.4,7.2,12C7.3,11.7,7.6,11.5,8.1,11.3z M8.2,13c0,0.4,0.1,0.7,0.3,0.9c0.2,0.2,0.4,0.3,0.7,0.3
				c0.3,0,0.5-0.1,0.7-0.3c0.2-0.2,0.3-0.5,0.3-0.9c0-0.3-0.1-0.6-0.3-0.8c-0.2-0.2-0.4-0.3-0.7-0.3S8.6,12,8.5,12.2
				C8.3,12.5,8.2,12.7,8.2,13z M8.3,9.9c0,0.3,0.1,0.5,0.2,0.6c0.2,0.2,0.4,0.2,0.6,0.2c0.3,0,0.5-0.1,0.6-0.2
				c0.1-0.1,0.3-0.3,0.3-0.6c0-0.3-0.1-0.5-0.2-0.6C9.7,9.1,9.4,9.1,9.2,9.1c-0.3,0-0.5,0.1-0.6,0.2C8.5,9.4,8.3,9.7,8.3,9.9z"/>
			<path fill="#FFFFFF" d="M14.7,8c0.7,0,1.2,0.2,1.6,0.7c0.5,0.6,0.7,1.6,0.7,2.9c0,1.4-0.2,2.3-0.7,2.9c-0.4,0.5-0.9,0.7-1.6,0.7
				c-0.7,0-1.2-0.3-1.7-0.8c-0.4-0.5-0.6-1.5-0.6-2.9c0-1.3,0.2-2.3,0.7-2.9C13.5,8.2,14,8,14.7,8z M14.7,9.1
				c-0.2,0-0.3,0.1-0.4,0.2C14.1,9.4,14,9.6,14,9.8c-0.1,0.4-0.1,1-0.1,1.8c0,0.8,0,1.4,0.1,1.7c0.1,0.3,0.2,0.5,0.3,0.6
				c0.1,0.1,0.3,0.2,0.4,0.2c0.1,0,0.3-0.1,0.4-0.2c0.1-0.1,0.2-0.3,0.3-0.6c0.1-0.4,0.1-0.9,0.1-1.8c0-0.9,0-1.4-0.1-1.7
				c-0.1-0.3-0.2-0.5-0.3-0.6C15,9.2,14.9,9.1,14.7,9.1z"/>
		</g>
	</g>
</g>
</svg>
