<?xml version="1.0" encoding="utf-8"?>
<!-- Generator: Adobe Illustrator 18.1.1, SVG Export Plug-In . SVG Version: 6.00 Build 0)  -->
<svg version="1.1" id="Layer_1" xmlns="http://www.w3.org/2000/svg" xmlns:xlink="http://www.w3.org/1999/xlink" x="0px" y="0px"
	 width="22px" height="18px" viewBox="0 0 24 18" enable-background="new 0 0 24 18" xml:space="preserve">
<g>
	<g>
		<path fill="#D368A8" d="M9,16c-3.6,0-6.5-2.9-6.5-6.5S5.4,3,9,3h6c3.6,0,6.5,2.9,6.5,6.5S18.6,16,15,16H9z"/>
		<path fill="#D0559F" d="M15,3c3.3,0,6,2.7,6,6s-2.7,6-6,6H9c-3.3,0-6-2.7-6-6s2.7-6,6-6h6.4 M15,2H9C5.1,2,2,5.1,2,9s3.1,7,7,7h6
			c3.8,0,7-3.1,7-7S18.8,2,15,2L15,2z"/>
		<path fill="#FFFFFF" d="M15,2c3.8,0,7,3.1,7,7s-3.2,7-7,7H9c-3.9,0-7-3.1-7-7s3.1-7,7-7h6.4 M15,1H9C4.6,1,1,4.6,1,9s3.6,8,8,8h6
			c4.4,0,8-3.6,8-8S19.4,1,15,1L15,1z"/>
		<path fill="#393937" d="M15,1c4.4,0,8,3.6,8,8s-3.6,8-8,8H9c-4.4,0-8-3.6-8-8s3.6-8,8-8h6.4 M15,0H9C4,0,0,4,0,9s4,9,9,9h6
			c5,0,9-4,9-9S20,0,15,0L15,0z"/>
	</g>
	<g>
		<rect x="1.9" y="5.4" fill="none" width="20.1" height="10"/>
		<text transform="matrix(1 0 0 1 6.4173 12.5349)" fill="#FFFFFF" font-family="'Arial-BoldMT'" font-size="10">90</text>
	</g>
</g>
</svg>
