<?xml version="1.0" encoding="utf-8"?>
<!-- Generator: Adobe Illustrator 17.1.0, SVG Export Plug-In . SVG Version: 6.00 Build 0)  -->
<!DOCTYPE svg PUBLIC "-//W3C//DTD SVG 1.1//EN" "http://www.w3.org/Graphics/SVG/1.1/DTD/svg11.dtd">
<svg version="1.1" id="Layer_1" xmlns="http://www.w3.org/2000/svg" xmlns:xlink="http://www.w3.org/1999/xlink" x="0px" y="0px"
	 width="22px" height="18px" viewBox="0 0 24 18" style="enable-background:new 0 0 24 18;" xml:space="preserve">
<style type="text/css">
	.st0{fill:#11BB00;}
	.st1{fill:#FFFFFF;}
	.st2{fill:#383836;}
	.st3{fill:#0E9900;}
</style>
<g>
	<g>
		<g>
			<path class="st0" d="M9,17c-4.1,0-7.5-3.4-7.5-7.5S4.9,2,9,2h6c4.1,0,7.5,3.4,7.5,7.5S19.1,17,15,17H9z"/>
			<path class="st1" d="M15,2c3.9,0,7,3.2,7,7s-3.1,7-7,7H9c-3.8,0-7-3.1-7-7s3.2-7,7-7H15 M15,1H9C4.6,1,1,4.6,1,9s3.6,8,8,8h6
				c4.4,0,8-3.6,8-8S19.4,1,15,1L15,1z"/>
		</g>
		<path class="st2" d="M15,1c4.4,0,8,3.6,8,8s-3.6,8-8,8H9c-4.4,0-8-3.6-8-8s3.6-8,8-8H15 M15,0H9C4,0,0,4,0,9s4,9,9,9h6
			c5,0,9-4,9-9S20,0,15,0L15,0z"/>
		<path class="st3" d="M15,3c3.3,0,6,2.7,6,6s-2.7,6-6,6H9c-3.3,0-6-2.7-6-6s2.7-6,6-6H15 M15,2H9C5.2,2,2,5.2,2,9s3.2,7,7,7h6
			c3.9,0,7-3.1,7-7S18.9,2,15,2L15,2z"/>
	</g>
</g>
<g>
</g>
<g>
</g>
<g>
</g>
<g>
</g>
<g>
</g>
<g>
</g>
<g>
</g>
<g>
</g>
<g>
</g>
<g>
</g>
<g>
</g>
<g>
</g>
<g>
</g>
<g>
</g>
<g>
</g>
</svg>
