<?xml version="1.0" encoding="utf-8"?>
<!-- Generator: Adobe Illustrator 18.1.1, SVG Export Plug-In . SVG Version: 6.00 Build 0)  -->
<svg version="1.1" id="Layer_1" xmlns="http://www.w3.org/2000/svg" xmlns:xlink="http://www.w3.org/1999/xlink" x="0px" y="0px"
	 width="36px" height="22px" viewBox="0 0 24 18" enable-background="new 0 0 24 18" xml:space="preserve">
<g>
	<g>
		<path d="M9,16c-3.6,0-6.5-2.9-6.5-6.5S5.4,3,9,3h6c3.6,0,6.5,2.9,6.5,6.5S18.6,16,15,16H9z"/>
		<path d="M15,3c3.3,0,6,2.7,6,6s-2.7,6-6,6H9c-3.3,0-6-2.7-6-6s2.7-6,6-6H15 M15,2H9C5.2,2,2,5.2,2,9s3.2,7,7,7h6c3.9,0,7-3.1,7-7
			S18.8,2,15,2L15,2z"/>
		<path fill="#FFFFFF" d="M15,2c3.8,0,7,3.2,7,7s-3.2,7-7,7H9c-3.8,0-7-3.1-7-7s3.2-7,7-7H15 M15,1H9C4.6,1,1,4.6,1,9s3.6,8,8,8h6
			c4.4,0,8-3.6,8-8S19.4,1,15,1L15,1z"/>
		<path fill="#383836" d="M15,1c4.4,0,8,3.6,8,8s-3.6,8-8,8H9c-4.4,0-8-3.6-8-8s3.6-8,8-8H15 M15,0H9C4,0,0,4,0,9s4,9,9,9h6
			c5,0,9-4,9-9S20,0,15,0L15,0z"/>
	</g>
	<g display="none">
		<g display="inline">
			<path fill="#FFFFFF" d="M6.9,10.3l1.4-0.1c0,0.3,0.2,0.6,0.3,0.7c0.2,0.2,0.4,0.3,0.7,0.3c0.3,0,0.5-0.1,0.7-0.3
				c0.2-0.2,0.3-0.6,0.3-1.1c0-0.4-0.1-0.8-0.3-1S9.5,8.5,9.2,8.5C8.8,8.5,8.5,8.6,8.2,9L7.1,8.8l0.7-3.7h3.6v1.3H8.8L8.6,7.6
				c0.3-0.2,0.6-0.2,0.9-0.2c0.6,0,1.1,0.2,1.5,0.7s0.6,1,0.6,1.7c0,0.6-0.2,1.1-0.5,1.6c-0.5,0.6-1.1,0.9-1.9,0.9
				c-0.7,0-1.2-0.2-1.6-0.5C7.2,11.4,7,10.9,6.9,10.3z"/>
			<path fill="#FFFFFF" d="M14.7,5c0.7,0,1.2,0.2,1.6,0.7C16.8,6.3,17,7.3,17,8.6c0,1.4-0.2,2.3-0.7,2.9c-0.4,0.5-0.9,0.7-1.6,0.7
				c-0.7,0-1.2-0.3-1.7-0.8c-0.4-0.5-0.6-1.5-0.6-2.9c0-1.3,0.2-2.3,0.7-2.9C13.5,5.2,14,5,14.7,5z M14.7,6.1
				c-0.2,0-0.3,0.1-0.4,0.2C14.1,6.4,14,6.6,14,6.8c-0.1,0.4-0.1,1-0.1,1.8s0,1.4,0.1,1.7c0.1,0.3,0.2,0.5,0.3,0.6
				c0.1,0.1,0.3,0.2,0.4,0.2s0.3-0.1,0.4-0.2c0.1-0.1,0.2-0.3,0.3-0.6c0.1-0.4,0.1-0.9,0.1-1.8s0-1.4-0.1-1.7s-0.2-0.5-0.3-0.6
				C15,6.2,14.9,6.1,14.7,6.1z"/>
		</g>
	</g>
	<text transform="matrix(1 0 0 1 9 12.3338)" fill="#FFFFFF" font-family="'Arial-BoldMT'" font-size="10">?</text>
</g>
</svg>
