<?xml version="1.0" encoding="UTF-8" standalone="no"?>
<!-- Generator: Adobe Illustrator 18.1.1, SVG Export Plug-In . SVG Version: 6.00 Build 0)  -->

<svg
   xmlns:dc="http://purl.org/dc/elements/1.1/"
   xmlns:cc="http://creativecommons.org/ns#"
   xmlns:rdf="http://www.w3.org/1999/02/22-rdf-syntax-ns#"
   xmlns:svg="http://www.w3.org/2000/svg"
   xmlns="http://www.w3.org/2000/svg"
   xmlns:sodipodi="http://sodipodi.sourceforge.net/DTD/sodipodi-0.dtd"
   xmlns:inkscape="http://www.inkscape.org/namespaces/inkscape"
   version="1.1"
   id="Layer_1"
   x="0px"
   y="0px"
   viewBox="0 0 258.4 387.6"
   enable-background="new 0 0 960 560"
   xml:space="preserve"
   inkscape:version="0.48.3.1 r9886"
   width="36px"
   height="22px"
   sodipodi:docname="arrow-drop-pink.svg"><metadata
   id="metadata4938"><rdf:RDF><cc:Work
       rdf:about=""><dc:format>image/svg+xml</dc:format><dc:type
         rdf:resource="http://purl.org/dc/dcmitype/StillImage" /></cc:Work></rdf:RDF></metadata><defs
   id="defs4936" /><sodipodi:namedview
   pagecolor="#ffffff"
   bordercolor="#666666"
   borderopacity="1"
   objecttolerance="10"
   gridtolerance="10"
   guidetolerance="10"
   inkscape:pageopacity="0"
   inkscape:pageshadow="2"
   inkscape:window-width="2560"
   inkscape:window-height="1412"
   id="namedview4934"
   showgrid="false"
   fit-margin-top="0"
   fit-margin-left="0"
   fit-margin-right="0"
   fit-margin-bottom="0"
   inkscape:zoom="0.37083333"
   inkscape:cx="129.2"
   inkscape:cy="193.8"
   inkscape:window-x="1920"
   inkscape:window-y="0"
   inkscape:window-maximized="1"
   inkscape:current-layer="Layer_1" />
<g
   id="GREY"
   transform="translate(-350.8,-86.2)">
</g>
<g
   id="BLUE"
   transform="translate(-350.8,-86.2)">
</g>
<g
   id="GREEN"
   transform="translate(-350.8,-86.2)">
</g>
<g
   id="g4926"
   transform="translate(-350.8,-86.2)">
	<path
   d="M 609.2,344.6 C 609.2,215.4 480,86.2 480,86.2 c 0,0 -129.2,129.2 -129.2,258.4 0,81.8 68.9,129.2 129.2,129.2 60.3,0 129.2,-47.3 129.2,-129.2 z M 480,441.5 c -53.8,0 -96.9,-43.1 -96.9,-96.9 0,-53.8 43.1,-96.9 96.9,-96.9 53.8,0 96.9,43.1 96.9,96.9 0,53.8 -43.1,96.9 -96.9,96.9 z"
   id="path4928"
   inkscape:connector-curvature="0"
   style="fill:#fc6da0" />
	<path
   d="M 582.7,341.9 C 582.7,234.9 480,128 480,128 c 0,0 -102.7,106.9 -102.7,213.9 0,67.7 54.8,106.9 102.7,106.9 47.9,0 102.7,-39.2 102.7,-106.9 z"
   id="path4930"
   inkscape:connector-curvature="0"
   style="fill:#ffffff" />
	<path
   d="m 556.4,345.6 c 0,-40.9 -34.5,-75.4 -75.4,-75.4 -40.9,0 -75.4,34.5 -75.4,75.4 0,40.9 34.5,75.4 75.4,75.4 40.9,0 75.4,-34.5 75.4,-75.4 z"
   id="path4932"
   inkscape:connector-curvature="0"
   style="fill:#fc6da0" />
</g>
</svg>